<svg viewBox="0,0,906,500" xmlns="http://www.w3.org/2000/svg" xmlns:xlink="http://www.w3.org/1999/xlink"><g><rect x="54" y="20" width="25" height="410" fill="#00008B" stroke="#00008B" stroke-width="1" style="padding: 3px; margin: 1px;">[object Object]</rect><rect x="82" y="32.8125" width="25" height="397.1875" fill="#00008B" stroke="#00008B" stroke-width="1" style="padding: 3px; margin: 1px;">[object Object]</rect><rect x="110" y="282.65625" width="25" height="147.34375" fill="#00008B" stroke="#00008B" stroke-width="1" style="padding: 3px; margin: 1px;">[object Object]</rect><rect x="138" y="293.8671875" width="25" height="136.1328125" fill="#00008B" stroke="#00008B" stroke-width="1" style="padding: 3px; margin: 1px;">[object Object]</rect><rect x="166" y="321.09375" width="25" height="108.90625" fill="#00008B" stroke="#00008B" stroke-width="1" style="padding: 3px; margin: 1px;">[object Object]</rect><rect x="194" y="335.5078125" width="25" height="94.4921875" fill="#00008B" stroke="#00008B" stroke-width="1" style="padding: 3px; margin: 1px;">[object Object]</rect><rect x="222" y="353.125" width="25" height="76.875" fill="#00008B" stroke="#00008B" stroke-width="1" style="padding: 3px; margin: 1px;">[object Object]</rect><rect x="250" y="369.140625" width="25" height="60.859375" fill="#00008B" stroke="#00008B" stroke-width="1" style="padding: 3px; margin: 1px;">[object Object]</rect><rect x="278" y="370.7421875" width="25" height="59.2578125" fill="#00008B" stroke="#00008B" stroke-width="1" style="padding: 3px; margin: 1px;">[object Object]</rect><rect x="306" y="380.3515625" width="25" height="49.6484375" fill="#00008B" stroke="#00008B" stroke-width="1" style="padding: 3px; margin: 1px;">[object Object]</rect><rect x="334" y="385.15625" width="25" height="44.84375" fill="#00008B" stroke="#00008B" stroke-width="1" style="padding: 3px; margin: 1px;">[object Object]</rect><rect x="362" y="388.359375" width="25" height="41.640625" fill="#00008B" stroke="#00008B" stroke-width="1" style="padding: 3px; margin: 1px;">[object Object]</rect><rect x="390" y="391.5625" width="25" height="38.4375" fill="#00008B" stroke="#00008B" stroke-width="1" style="padding: 3px; margin: 1px;">[object Object]</rect><rect x="418" y="391.5625" width="25" height="38.4375" fill="#00008B" stroke="#00008B" stroke-width="1" style="padding: 3px; margin: 1px;">[object Object]</rect><rect x="446" y="393.1640625" width="25" height="36.8359375" fill="#00008B" stroke="#00008B" stroke-width="1" style="padding: 3px; margin: 1px;">[object Object]</rect><rect x="474" y="393.1640625" width="25" height="36.8359375" fill="#00008B" stroke="#00008B" stroke-width="1" style="padding: 3px; margin: 1px;">[object Object]</rect><rect x="502" y="394.765625" width="25" height="35.234375" fill="#00008B" stroke="#00008B" stroke-width="1" style="padding: 3px; margin: 1px;">[object Object]</rect><rect x="530" y="394.765625" width="25" height="35.234375" fill="#00008B" stroke="#00008B" stroke-width="1" style="padding: 3px; margin: 1px;">[object Object]</rect><rect x="558" y="394.765625" width="25" height="35.234375" fill="#00008B" stroke="#00008B" stroke-width="1" style="padding: 3px; margin: 1px;">[object Object]</rect><rect x="586" y="397.96875" width="25" height="32.03125" fill="#00008B" stroke="#00008B" stroke-width="1" style="padding: 3px; margin: 1px;">[object Object]</rect><rect x="614" y="397.96875" width="25" height="32.03125" fill="#00008B" stroke="#00008B" stroke-width="1" style="padding: 3px; margin: 1px;">[object Object]</rect><rect x="642" y="399.5703125" width="25" height="30.4296875" fill="#00008B" stroke="#00008B" stroke-width="1" style="padding: 3px; margin: 1px;">[object Object]</rect><rect x="670" y="399.5703125" width="25" height="30.4296875" fill="#00008B" stroke="#00008B" stroke-width="1" style="padding: 3px; margin: 1px;">[object Object]</rect><rect x="698" y="399.5703125" width="25" height="30.4296875" fill="#00008B" stroke="#00008B" stroke-width="1" style="padding: 3px; margin: 1px;">[object Object]</rect><rect x="726" y="399.5703125" width="25" height="30.4296875" fill="#00008B" stroke="#00008B" stroke-width="1" style="padding: 3px; margin: 1px;">[object Object]</rect><rect x="754" y="401.171875" width="25" height="28.828125" fill="#00008B" stroke="#00008B" stroke-width="1" style="padding: 3px; margin: 1px;">[object Object]</rect><rect x="782" y="401.171875" width="25" height="28.828125" fill="#00008B" stroke="#00008B" stroke-width="1" style="padding: 3px; margin: 1px;">[object Object]</rect><rect x="810" y="402.7734375" width="25" height="27.2265625" fill="#00008B" stroke="#00008B" stroke-width="1" style="padding: 3px; margin: 1px;">[object Object]</rect><rect x="838" y="402.7734375" width="25" height="27.2265625" fill="#00008B" stroke="#00008B" stroke-width="1" style="padding: 3px; margin: 1px;">[object Object]</rect><rect x="866" y="402.7734375" width="25" height="27.2265625" fill="#00008B" stroke="#00008B" stroke-width="1" style="padding: 3px; margin: 1px;">[object Object]</rect></g><g transform="translate(0,430)" fill="none" font-size="10" font-family="sans-serif" text-anchor="middle"><path class="domain" stroke="currentColor" d="M40.5,0.5H906.5"/><g class="tick" opacity="1" transform="translate(66.5,0)"><line stroke="currentColor" y2="6"/><text fill="currentColor" y="0" dy=".35em" x="9" transform="rotate(40)" style="text-anchor: start;">conferencia</text></g><g class="tick" opacity="1" transform="translate(94.5,0)"><line stroke="currentColor" y2="6"/><text fill="currentColor" y="0" dy=".35em" x="9" transform="rotate(40)" style="text-anchor: start;">matutina</text></g><g class="tick" opacity="1" transform="translate(122.5,0)"><line stroke="currentColor" y2="6"/><text fill="currentColor" y="0" dy=".35em" x="9" transform="rotate(40)" style="text-anchor: start;">nacional</text></g><g class="tick" opacity="1" transform="translate(150.5,0)"><line stroke="currentColor" y2="6"/><text fill="currentColor" y="0" dy=".35em" x="9" transform="rotate(40)" style="text-anchor: start;">prensa</text></g><g class="tick" opacity="1" transform="translate(178.5,0)"><line stroke="currentColor" y2="6"/><text fill="currentColor" y="0" dy=".35em" x="9" transform="rotate(40)" style="text-anchor: start;">méxico</text></g><g class="tick" opacity="1" transform="translate(206.5,0)"><line stroke="currentColor" y2="6"/><text fill="currentColor" y="0" dy=".35em" x="9" transform="rotate(40)" style="text-anchor: start;">palacio</text></g><g class="tick" opacity="1" transform="translate(234.5,0)"><line stroke="currentColor" y2="6"/><text fill="currentColor" y="0" dy=".35em" x="9" transform="rotate(40)" style="text-anchor: start;">pueblo</text></g><g class="tick" opacity="1" transform="translate(262.5,0)"><line stroke="currentColor" y2="6"/><text fill="currentColor" y="0" dy=".35em" x="9" transform="rotate(40)" style="text-anchor: start;">bienestar</text></g><g class="tick" opacity="1" transform="translate(290.5,0)"><line stroke="currentColor" y2="6"/><text fill="currentColor" y="0" dy=".35em" x="9" transform="rotate(40)" style="text-anchor: start;">país</text></g><g class="tick" opacity="1" transform="translate(318.5,0)"><line stroke="currentColor" y2="6"/><text fill="currentColor" y="0" dy=".35em" x="9" transform="rotate(40)" style="text-anchor: start;">inauguración</text></g><g class="tick" opacity="1" transform="translate(346.5,0)"><line stroke="currentColor" y2="6"/><text fill="currentColor" y="0" dy=".35em" x="9" transform="rotate(40)" style="text-anchor: start;">covid</text></g><g class="tick" opacity="1" transform="translate(374.5,0)"><line stroke="currentColor" y2="6"/><text fill="currentColor" y="0" dy=".35em" x="9" transform="rotate(40)" style="text-anchor: start;">años</text></g><g class="tick" opacity="1" transform="translate(402.5,0)"><line stroke="currentColor" y2="6"/><text fill="currentColor" y="0" dy=".35em" x="9" transform="rotate(40)" style="text-anchor: start;">guerrero</text></g><g class="tick" opacity="1" transform="translate(430.5,0)"><line stroke="currentColor" y2="6"/><text fill="currentColor" y="0" dy=".35em" x="9" transform="rotate(40)" style="text-anchor: start;">pueblos</text></g><g class="tick" opacity="1" transform="translate(458.5,0)"><line stroke="currentColor" y2="6"/><text fill="currentColor" y="0" dy=".35em" x="9" transform="rotate(40)" style="text-anchor: start;">gobierno</text></g><g class="tick" opacity="1" transform="translate(486.5,0)"><line stroke="currentColor" y2="6"/><text fill="currentColor" y="0" dy=".35em" x="9" transform="rotate(40)" style="text-anchor: start;">california</text></g><g class="tick" opacity="1" transform="translate(514.5,0)"><line stroke="currentColor" y2="6"/><text fill="currentColor" y="0" dy=".35em" x="9" transform="rotate(40)" style="text-anchor: start;">presidente</text></g><g class="tick" opacity="1" transform="translate(542.5,0)"><line stroke="currentColor" y2="6"/><text fill="currentColor" y="0" dy=".35em" x="9" transform="rotate(40)" style="text-anchor: start;">baja</text></g><g class="tick" opacity="1" transform="translate(570.5,0)"><line stroke="currentColor" y2="6"/><text fill="currentColor" y="0" dy=".35em" x="9" transform="rotate(40)" style="text-anchor: start;">plan</text></g><g class="tick" opacity="1" transform="translate(598.5,0)"><line stroke="currentColor" y2="6"/><text fill="currentColor" y="0" dy=".35em" x="9" transform="rotate(40)" style="text-anchor: start;">justicia</text></g><g class="tick" opacity="1" transform="translate(626.5,0)"><line stroke="currentColor" y2="6"/><text fill="currentColor" y="0" dy=".35em" x="9" transform="rotate(40)" style="text-anchor: start;">programas</text></g><g class="tick" opacity="1" transform="translate(654.5,0)"><line stroke="currentColor" y2="6"/><text fill="currentColor" y="0" dy=".35em" x="9" transform="rotate(40)" style="text-anchor: start;">transformación</text></g><g class="tick" opacity="1" transform="translate(682.5,0)"><line stroke="currentColor" y2="6"/><text fill="currentColor" y="0" dy=".35em" x="9" transform="rotate(40)" style="text-anchor: start;">oaxaca</text></g><g class="tick" opacity="1" transform="translate(710.5,0)"><line stroke="currentColor" y2="6"/><text fill="currentColor" y="0" dy=".35em" x="9" transform="rotate(40)" style="text-anchor: start;">general</text></g><g class="tick" opacity="1" transform="translate(738.5,0)"><line stroke="currentColor" y2="6"/><text fill="currentColor" y="0" dy=".35em" x="9" transform="rotate(40)" style="text-anchor: start;">obra</text></g><g class="tick" opacity="1" transform="translate(766.5,0)"><line stroke="currentColor" y2="6"/><text fill="currentColor" y="0" dy=".35em" x="9" transform="rotate(40)" style="text-anchor: start;">apoyo</text></g><g class="tick" opacity="1" transform="translate(794.5,0)"><line stroke="currentColor" y2="6"/><text fill="currentColor" y="0" dy=".35em" x="9" transform="rotate(40)" style="text-anchor: start;">democracia</text></g><g class="tick" opacity="1" transform="translate(822.5,0)"><line stroke="currentColor" y2="6"/><text fill="currentColor" y="0" dy=".35em" x="9" transform="rotate(40)" style="text-anchor: start;">corrupción</text></g><g class="tick" opacity="1" transform="translate(850.5,0)"><line stroke="currentColor" y2="6"/><text fill="currentColor" y="0" dy=".35em" x="9" transform="rotate(40)" style="text-anchor: start;">desarrollo</text></g><g class="tick" opacity="1" transform="translate(878.5,0)"><line stroke="currentColor" y2="6"/><text fill="currentColor" y="0" dy=".35em" x="9" transform="rotate(40)" style="text-anchor: start;">ciudad</text></g></g><g transform="translate(40,0)" fill="none" font-size="10" font-family="sans-serif" text-anchor="end"><g class="tick" opacity="1" transform="translate(0,430.5)"><line stroke="currentColor" x2="-6"/><text fill="currentColor" x="-9" dy="0.32em">0</text></g><g class="tick" opacity="1" transform="translate(0,398.46875)"><line stroke="currentColor" x2="-6"/><text fill="currentColor" x="-9" dy="0.32em">20</text></g><g class="tick" opacity="1" transform="translate(0,366.4375)"><line stroke="currentColor" x2="-6"/><text fill="currentColor" x="-9" dy="0.32em">40</text></g><g class="tick" opacity="1" transform="translate(0,334.40625)"><line stroke="currentColor" x2="-6"/><text fill="currentColor" x="-9" dy="0.32em">60</text></g><g class="tick" opacity="1" transform="translate(0,302.375)"><line stroke="currentColor" x2="-6"/><text fill="currentColor" x="-9" dy="0.32em">80</text></g><g class="tick" opacity="1" transform="translate(0,270.34375)"><line stroke="currentColor" x2="-6"/><text fill="currentColor" x="-9" dy="0.32em">100</text></g><g class="tick" opacity="1" transform="translate(0,238.3125)"><line stroke="currentColor" x2="-6"/><text fill="currentColor" x="-9" dy="0.32em">120</text></g><g class="tick" opacity="1" transform="translate(0,206.28125)"><line stroke="currentColor" x2="-6"/><text fill="currentColor" x="-9" dy="0.32em">140</text></g><g class="tick" opacity="1" transform="translate(0,174.25)"><line stroke="currentColor" x2="-6"/><text fill="currentColor" x="-9" dy="0.32em">160</text></g><g class="tick" opacity="1" transform="translate(0,142.21875)"><line stroke="currentColor" x2="-6"/><text fill="currentColor" x="-9" dy="0.32em">180</text></g><g class="tick" opacity="1" transform="translate(0,110.1875)"><line stroke="currentColor" x2="-6"/><text fill="currentColor" x="-9" dy="0.32em">200</text></g><g class="tick" opacity="1" transform="translate(0,78.15625)"><line stroke="currentColor" x2="-6"/><text fill="currentColor" x="-9" dy="0.32em">220</text></g><g class="tick" opacity="1" transform="translate(0,46.125)"><line stroke="currentColor" x2="-6"/><text fill="currentColor" x="-9" dy="0.32em">240</text></g></g><text font-family="sans-serif" font-size="10" y="10">Frequency</text></svg>