<svg xmlns="http://www.w3.org/2000/svg" viewBox="0 0 584.92 535.3"><defs><style>.cls-1{fill:#d6e6f2;}.cls-2,.cls-3{fill:none;stroke:#fff;}.cls-2{stroke-width:2px;}.cls-4,.cls-5{isolation:isolate;font-family:Helvetica;}.cls-4{font-size:10px;}.cls-4,.cls-5,.cls-6{fill:#2f3a8f;}.cls-5{font-size:16px;}.cls-6{stroke:#ddd;}</style></defs><g id="Layer_2" data-name="Layer 2"><g id="Layer_1-2" data-name="Layer 1"><path class="cls-1" d="M15.11,487.61H569.36L292.23,7.61Z"/><line class="cls-2" x1="569.36" y1="487.61" x2="15.11" y2="487.61"/><line class="cls-3" x1="541.65" y1="439.61" x2="42.82" y2="439.61"/><line class="cls-2" x1="513.94" y1="391.61" x2="70.53" y2="391.61"/><line class="cls-3" x1="486.22" y1="343.61" x2="98.24" y2="343.61"/><line class="cls-2" x1="458.51" y1="295.61" x2="125.96" y2="295.61"/><line class="cls-3" x1="430.8" y1="247.61" x2="153.67" y2="247.61"/><line class="cls-2" x1="403.08" y1="199.61" x2="181.38" y2="199.61"/><line class="cls-3" x1="375.37" y1="151.61" x2="209.09" y2="151.61"/><line class="cls-2" x1="347.66" y1="103.61" x2="236.81" y2="103.61"/><line class="cls-3" x1="319.95" y1="55.61" x2="264.52" y2="55.61"/><line class="cls-2" x1="292.23" y1="7.61" x2="569.36" y2="487.61"/><line class="cls-3" x1="264.52" y1="55.61" x2="513.94" y2="487.61"/><line class="cls-2" x1="236.81" y1="103.61" x2="458.51" y2="487.61"/><line class="cls-3" x1="209.09" y1="151.61" x2="403.08" y2="487.61"/><line class="cls-2" x1="181.38" y1="199.61" x2="347.66" y2="487.61"/><line class="cls-3" x1="153.67" y1="247.61" x2="292.23" y2="487.61"/><line class="cls-2" x1="125.96" y1="295.61" x2="236.81" y2="487.61"/><line class="cls-3" x1="98.24" y1="343.61" x2="181.38" y2="487.61"/><line class="cls-2" x1="70.53" y1="391.61" x2="125.96" y2="487.61"/><line class="cls-3" x1="42.82" y1="439.61" x2="70.53" y2="487.61"/><line class="cls-2" x1="15.11" y1="487.61" x2="292.23" y2="7.61"/><line class="cls-3" x1="70.53" y1="487.61" x2="319.95" y2="55.61"/><line class="cls-2" x1="125.96" y1="487.61" x2="347.66" y2="103.61"/><line class="cls-3" x1="181.38" y1="487.61" x2="375.37" y2="151.61"/><line class="cls-2" x1="236.81" y1="487.61" x2="403.08" y2="199.61"/><line class="cls-3" x1="292.23" y1="487.61" x2="430.8" y2="247.61"/><line class="cls-2" x1="347.66" y1="487.61" x2="458.51" y2="295.61"/><line class="cls-3" x1="403.08" y1="487.61" x2="486.22" y2="343.61"/><line class="cls-2" x1="458.51" y1="487.61" x2="513.94" y2="391.61"/><line class="cls-3" x1="513.94" y1="487.61" x2="541.65" y2="439.61"/><text class="cls-4" transform="translate(579.36 490.61)">0</text><text class="cls-4" transform="translate(523.94 394.61)">20</text><text class="cls-4" transform="translate(468.51 298.61)">40</text><text class="cls-4" transform="translate(413.08 202.61)">60</text><text class="cls-4" transform="translate(357.66 106.61)">80</text><text class="cls-4" transform="translate(302.23 10.61)">100</text><text class="cls-4" transform="translate(286.85 4.29) rotate(60)">0</text><text class="cls-4" transform="translate(228.65 95.48) rotate(60)">20</text><text class="cls-4" transform="translate(173.22 191.48) rotate(60)">40</text><text class="cls-4" transform="translate(117.8 287.48) rotate(60)">60</text><text class="cls-4" transform="translate(62.37 383.48) rotate(60)">80</text><text class="cls-4" transform="translate(4.17 474.66) rotate(60)">100</text><text class="cls-4" transform="translate(14.92 493.93) rotate(-60)">0</text><text class="cls-4" transform="translate(122.99 498.74) rotate(-60)">20</text><text class="cls-4" transform="translate(233.84 498.74) rotate(-60)">40</text><text class="cls-4" transform="translate(344.7 498.74) rotate(-60)">60</text><text class="cls-4" transform="translate(455.55 498.74) rotate(-60)">80</text><text class="cls-4" transform="translate(563.62 503.56) rotate(-60)">100</text><text class="cls-5" transform="translate(410.08 131.73) rotate(60)">Replies (% of total interactions)</text><text class="cls-5" transform="translate(67.67 316.56) rotate(-60)">Likes (% of total interactions)</text><text class="cls-5" transform="translate(174.85 527.61)">Retweets (% of total interactions)</text><circle class="cls-6" cx="160.7" cy="425.1" r="5"/><circle class="cls-6" cx="166.37" cy="429.49" r="5"/><circle class="cls-6" cx="172.2" cy="405.84" r="5"/><circle class="cls-6" cx="166.94" cy="433.1" r="5"/><circle class="cls-6" cx="139.05" cy="427.62" r="5"/><circle class="cls-6" cx="163.84" cy="436.68" r="5"/><circle class="cls-6" cx="150.83" cy="453.49" r="5"/><circle class="cls-6" cx="110.47" cy="452.1" r="5"/><circle class="cls-6" cx="144.73" cy="431.61" r="5"/><circle class="cls-6" cx="166.68" cy="417.78" r="5"/><circle class="cls-6" cx="163.58" cy="438.74" r="5"/><circle class="cls-6" cx="172.13" cy="406.34" r="5"/><circle class="cls-6" cx="127.14" cy="470.05" r="5"/><circle class="cls-6" cx="132.87" cy="463.28" r="5"/><circle class="cls-6" cx="178.81" cy="397.27" r="5"/><circle class="cls-6" cx="144.8" cy="444.73" r="5"/><circle class="cls-6" cx="162.66" cy="450.1" r="5"/><circle class="cls-6" cx="157.05" cy="444.02" r="5"/><circle class="cls-6" cx="143.15" cy="444.23" r="5"/><circle class="cls-6" cx="168.78" cy="419.75" r="5"/><circle class="cls-6" cx="167.08" cy="406.87" r="5"/><circle class="cls-6" cx="165.12" cy="431.12" r="5"/><circle class="cls-6" cx="151.16" cy="461.42" r="5"/><circle class="cls-6" cx="124.94" cy="462.09" r="5"/><circle class="cls-6" cx="163.79" cy="444.23" r="5"/><circle class="cls-6" cx="106.62" cy="470.03" r="5"/><circle class="cls-6" cx="148.22" cy="468.83" r="5"/><circle class="cls-6" cx="146.79" cy="458.49" r="5"/><circle class="cls-6" cx="149.22" cy="459.45" r="5"/><circle class="cls-6" cx="155.79" cy="454.03" r="5"/><circle class="cls-6" cx="145.41" cy="425.44" r="5"/><circle class="cls-6" cx="157.84" cy="461.26" r="5"/><circle class="cls-6" cx="156.79" cy="459.85" r="5"/><circle class="cls-6" cx="141.32" cy="459.46" r="5"/><circle class="cls-6" cx="130.25" cy="441.87" r="5"/><circle class="cls-6" cx="161.48" cy="437.64" r="5"/><circle class="cls-6" cx="156.01" cy="447.93" r="5"/><circle class="cls-6" cx="144.07" cy="446.24" r="5"/><circle class="cls-6" cx="155.15" cy="455.53" r="5"/><circle class="cls-6" cx="156.85" cy="457.34" r="5"/><circle class="cls-6" cx="164.47" cy="424.11" r="5"/><circle class="cls-6" cx="142.66" cy="469.81" r="5"/><circle class="cls-6" cx="149.48" cy="453.46" r="5"/><circle class="cls-6" cx="168.13" cy="418.33" r="5"/><circle class="cls-6" cx="148.17" cy="461.73" r="5"/><circle class="cls-6" cx="150.4" cy="453.27" r="5"/><circle class="cls-6" cx="158.07" cy="457.55" r="5"/><circle class="cls-6" cx="148.21" cy="454.66" r="5"/><circle class="cls-6" cx="159.94" cy="443.56" r="5"/><circle class="cls-6" cx="155.03" cy="441.3" r="5"/><circle class="cls-6" cx="140.11" cy="436.79" r="5"/><circle class="cls-6" cx="175.96" cy="433.83" r="5"/><circle class="cls-6" cx="161.25" cy="433.35" r="5"/><circle class="cls-6" cx="159.23" cy="438.46" r="5"/><circle class="cls-6" cx="148.57" cy="460.11" r="5"/><circle class="cls-6" cx="151.83" cy="464.13" r="5"/><circle class="cls-6" cx="163.24" cy="443.05" r="5"/><circle class="cls-6" cx="138.15" cy="456.35" r="5"/><circle class="cls-6" cx="160.16" cy="455.71" r="5"/><circle class="cls-6" cx="112.43" cy="442.03" r="5"/><circle class="cls-6" cx="154.88" cy="462.22" r="5"/><circle class="cls-6" cx="185.87" cy="394.38" r="5"/><circle class="cls-6" cx="157.06" cy="446.96" r="5"/><circle class="cls-6" cx="150.48" cy="451.91" r="5"/><circle class="cls-6" cx="156.97" cy="442.6" r="5"/><circle class="cls-6" cx="155.6" cy="455.74" r="5"/><circle class="cls-6" cx="149.43" cy="462.97" r="5"/><circle class="cls-6" cx="166.48" cy="431.55" r="5"/><circle class="cls-6" cx="149.78" cy="454.78" r="5"/><circle class="cls-6" cx="154.52" cy="460.42" r="5"/><circle class="cls-6" cx="163.82" cy="435.06" r="5"/><circle class="cls-6" cx="158.14" cy="448.39" r="5"/><circle class="cls-6" cx="129.22" cy="441.95" r="5"/><circle class="cls-6" cx="158.03" cy="459.42" r="5"/><circle class="cls-6" cx="128.12" cy="458.18" r="5"/><circle class="cls-6" cx="138.85" cy="458.89" r="5"/><circle class="cls-6" cx="135.28" cy="465.39" r="5"/><circle class="cls-6" cx="163.87" cy="473.57" r="5"/><circle class="cls-6" cx="161.13" cy="461.89" r="5"/><circle class="cls-6" cx="142.24" cy="467.16" r="5"/><circle class="cls-6" cx="159.3" cy="469.7" r="5"/><circle class="cls-6" cx="142.1" cy="470.69" r="5"/><circle class="cls-6" cx="154.41" cy="427.52" r="5"/><circle class="cls-6" cx="164.39" cy="462.76" r="5"/><circle class="cls-6" cx="123.95" cy="446.18" r="5"/><circle class="cls-6" cx="155.08" cy="464.36" r="5"/><circle class="cls-6" cx="138.71" cy="459.7" r="5"/><circle class="cls-6" cx="148.98" cy="462.77" r="5"/><circle class="cls-6" cx="155.88" cy="443.15" r="5"/><circle class="cls-6" cx="145.48" cy="474.7" r="5"/><circle class="cls-6" cx="129.81" cy="452.35" r="5"/><circle class="cls-6" cx="156.58" cy="451.5" r="5"/><circle class="cls-6" cx="155.92" cy="442.81" r="5"/><circle class="cls-6" cx="139.42" cy="467.71" r="5"/><circle class="cls-6" cx="135.67" cy="469.44" r="5"/><circle class="cls-6" cx="148.51" cy="449.3" r="5"/><circle class="cls-6" cx="157.02" cy="416.67" r="5"/><circle class="cls-6" cx="157.15" cy="445.22" r="5"/><circle class="cls-6" cx="130.12" cy="460.82" r="5"/><circle class="cls-6" cx="149.1" cy="470.17" r="5"/><circle class="cls-6" cx="155.18" cy="451.98" r="5"/><circle class="cls-6" cx="147.91" cy="466.47" r="5"/><circle class="cls-6" cx="155.44" cy="466.1" r="5"/><circle class="cls-6" cx="156.47" cy="439.62" r="5"/><circle class="cls-6" cx="150.51" cy="433.23" r="5"/><circle class="cls-6" cx="148.87" cy="457.37" r="5"/><circle class="cls-6" cx="178.41" cy="444.99" r="5"/><circle class="cls-6" cx="161.86" cy="435.54" r="5"/><circle class="cls-6" cx="154.02" cy="446.55" r="5"/><circle class="cls-6" cx="150.82" cy="455.57" r="5"/><circle class="cls-6" cx="158.99" cy="452.3" r="5"/><circle class="cls-6" cx="152.48" cy="445.92" r="5"/><circle class="cls-6" cx="161.77" cy="432.4" r="5"/><circle class="cls-6" cx="136.53" cy="451.2" r="5"/><circle class="cls-6" cx="158.4" cy="447.58" r="5"/><circle class="cls-6" cx="126.28" cy="466.09" r="5"/><circle class="cls-6" cx="130.72" cy="451.45" r="5"/><circle class="cls-6" cx="131.32" cy="464.29" r="5"/><circle class="cls-6" cx="145.42" cy="430.74" r="5"/><circle class="cls-6" cx="125.9" cy="462.89" r="5"/><circle class="cls-6" cx="136.1" cy="436.51" r="5"/><circle class="cls-6" cx="160.05" cy="446.74" r="5"/><circle class="cls-6" cx="151.32" cy="457.48" r="5"/><circle class="cls-6" cx="154.58" cy="448.19" r="5"/><circle class="cls-6" cx="166.63" cy="424.62" r="5"/><circle class="cls-6" cx="167.67" cy="442.57" r="5"/><circle class="cls-6" cx="163.96" cy="427.94" r="5"/><circle class="cls-6" cx="157.6" cy="448.82" r="5"/><circle class="cls-6" cx="150.32" cy="467.45" r="5"/><circle class="cls-6" cx="148.54" cy="467.32" r="5"/><circle class="cls-6" cx="158.75" cy="447.19" r="5"/><circle class="cls-6" cx="148.41" cy="463.87" r="5"/><circle class="cls-6" cx="148.57" cy="461.64" r="5"/><circle class="cls-6" cx="152.15" cy="463.1" r="5"/><circle class="cls-6" cx="149.29" cy="460.42" r="5"/><circle class="cls-6" cx="165.91" cy="421.53" r="5"/><circle class="cls-6" cx="141.16" cy="429.63" r="5"/><circle class="cls-6" cx="151.5" cy="375.95" r="5"/><circle class="cls-6" cx="161.7" cy="434.43" r="5"/><circle class="cls-6" cx="127.97" cy="455.92" r="5"/><circle class="cls-6" cx="175.5" cy="403.08" r="5"/><circle class="cls-6" cx="124.08" cy="471.72" r="5"/><circle class="cls-6" cx="158.22" cy="445.43" r="5"/><circle class="cls-6" cx="125.81" cy="462.36" r="5"/><circle class="cls-6" cx="162.77" cy="459.02" r="5"/><circle class="cls-6" cx="166.17" cy="424.23" r="5"/><circle class="cls-6" cx="146.54" cy="465.09" r="5"/><circle class="cls-6" cx="147.58" cy="462.06" r="5"/><circle class="cls-6" cx="162.86" cy="444.9" r="5"/><circle class="cls-6" cx="151.27" cy="458.82" r="5"/><circle class="cls-6" cx="143.94" cy="443.04" r="5"/><circle class="cls-6" cx="146.65" cy="465.03" r="5"/><circle class="cls-6" cx="146.65" cy="464.19" r="5"/><circle class="cls-6" cx="162.79" cy="440.17" r="5"/><circle class="cls-6" cx="164.97" cy="434.12" r="5"/><circle class="cls-6" cx="173.02" cy="415.77" r="5"/><circle class="cls-6" cx="146.91" cy="439.43" r="5"/><circle class="cls-6" cx="159.95" cy="446.17" r="5"/><circle class="cls-6" cx="174.61" cy="430.36" r="5"/><circle class="cls-6" cx="127.48" cy="451.64" r="5"/><circle class="cls-6" cx="156.2" cy="457.2" r="5"/><circle class="cls-6" cx="149.95" cy="465.91" r="5"/><circle class="cls-6" cx="148.61" cy="455.58" r="5"/><circle class="cls-6" cx="157.74" cy="454.31" r="5"/><circle class="cls-6" cx="105.73" cy="470.47" r="5"/><circle class="cls-6" cx="116.46" cy="428.23" r="5"/><circle class="cls-6" cx="125.43" cy="471.54" r="5"/><circle class="cls-6" cx="139.82" cy="467.26" r="5"/><circle class="cls-6" cx="139.42" cy="461.59" r="5"/><circle class="cls-6" cx="167.03" cy="439.94" r="5"/><circle class="cls-6" cx="164.38" cy="416.18" r="5"/><circle class="cls-6" cx="158.17" cy="435.57" r="5"/><circle class="cls-6" cx="149.17" cy="460.39" r="5"/><circle class="cls-6" cx="146.3" cy="461.99" r="5"/><circle class="cls-6" cx="134.15" cy="451.22" r="5"/><circle class="cls-6" cx="154.87" cy="438.89" r="5"/><circle class="cls-6" cx="150.54" cy="454.4" r="5"/><circle class="cls-6" cx="155.67" cy="448.09" r="5"/><circle class="cls-6" cx="148.82" cy="460.54" r="5"/><circle class="cls-6" cx="156.65" cy="447.43" r="5"/><circle class="cls-6" cx="168.13" cy="381.57" r="5"/><circle class="cls-6" cx="142.33" cy="468.28" r="5"/><circle class="cls-6" cx="164.78" cy="440.44" r="5"/><circle class="cls-6" cx="150.68" cy="452.32" r="5"/><circle class="cls-6" cx="155.68" cy="447.85" r="5"/><circle class="cls-6" cx="161.1" cy="425.87" r="5"/><circle class="cls-6" cx="155.87" cy="455.24" r="5"/><circle class="cls-6" cx="154.64" cy="456.07" r="5"/><circle class="cls-6" cx="157.21" cy="451.55" r="5"/><circle class="cls-6" cx="157.62" cy="445.71" r="5"/><circle class="cls-6" cx="163.33" cy="442.55" r="5"/><circle class="cls-6" cx="130.56" cy="455.58" r="5"/><circle class="cls-6" cx="162.69" cy="457.3" r="5"/><circle class="cls-6" cx="154.68" cy="461.25" r="5"/><circle class="cls-6" cx="161.81" cy="455.61" r="5"/><circle class="cls-6" cx="154.05" cy="438.86" r="5"/><circle class="cls-6" cx="151.66" cy="462.91" r="5"/><circle class="cls-6" cx="173.96" cy="380.02" r="5"/><circle class="cls-6" cx="142.99" cy="449.57" r="5"/><circle class="cls-6" cx="151.92" cy="446.6" r="5"/><circle class="cls-6" cx="157.78" cy="441.21" r="5"/><circle class="cls-6" cx="153.72" cy="443.45" r="5"/><circle class="cls-6" cx="152.69" cy="461.16" r="5"/><circle class="cls-6" cx="163.43" cy="440.79" r="5"/><circle class="cls-6" cx="162.65" cy="438.26" r="5"/><circle class="cls-6" cx="159.39" cy="444.55" r="5"/><circle class="cls-6" cx="158.81" cy="422.81" r="5"/><circle class="cls-6" cx="149.91" cy="463.97" r="5"/><circle class="cls-6" cx="160.56" cy="445" r="5"/><circle class="cls-6" cx="177.56" cy="451.79" r="5"/><circle class="cls-6" cx="133.73" cy="470.32" r="5"/><circle class="cls-6" cx="130.69" cy="466.23" r="5"/><circle class="cls-6" cx="145.83" cy="446.29" r="5"/><circle class="cls-6" cx="159.43" cy="427.07" r="5"/><circle class="cls-6" cx="160.17" cy="437.19" r="5"/><circle class="cls-6" cx="134.11" cy="461.18" r="5"/><circle class="cls-6" cx="139.03" cy="458.2" r="5"/><circle class="cls-6" cx="163.75" cy="446.32" r="5"/><circle class="cls-6" cx="121.47" cy="474.92" r="5"/><circle class="cls-6" cx="119.07" cy="476.19" r="5"/><circle class="cls-6" cx="151.97" cy="475.84" r="5"/><circle class="cls-6" cx="125.95" cy="458.34" r="5"/><circle class="cls-6" cx="131.25" cy="474.77" r="5"/><circle class="cls-6" cx="128.97" cy="478.42" r="5"/><circle class="cls-6" cx="137.9" cy="464.49" r="5"/><circle class="cls-6" cx="144.29" cy="452.26" r="5"/><circle class="cls-6" cx="151.05" cy="460.13" r="5"/><circle class="cls-6" cx="167.89" cy="425.48" r="5"/><circle class="cls-6" cx="160.53" cy="451.01" r="5"/><circle class="cls-6" cx="156.18" cy="452.55" r="5"/><circle class="cls-6" cx="154.41" cy="459.06" r="5"/><circle class="cls-6" cx="152.35" cy="445.1" r="5"/><circle class="cls-6" cx="152.83" cy="445.17" r="5"/><circle class="cls-6" cx="151.62" cy="463.9" r="5"/><circle class="cls-6" cx="150.57" cy="462.75" r="5"/><circle class="cls-6" cx="153.45" cy="448.05" r="5"/><circle class="cls-6" cx="159.01" cy="443.54" r="5"/><circle class="cls-6" cx="155.89" cy="432.67" r="5"/><circle class="cls-6" cx="157.48" cy="438.61" r="5"/><circle class="cls-6" cx="158.02" cy="450.92" r="5"/><circle class="cls-6" cx="148.08" cy="442.62" r="5"/><circle class="cls-6" cx="145.6" cy="422.03" r="5"/><circle class="cls-6" cx="169.07" cy="425.68" r="5"/><circle class="cls-6" cx="161.11" cy="449.5" r="5"/><circle class="cls-6" cx="126.67" cy="458.03" r="5"/><circle class="cls-6" cx="163.64" cy="429.82" r="5"/><circle class="cls-6" cx="157.65" cy="456.86" r="5"/><circle class="cls-6" cx="162.58" cy="413.78" r="5"/><circle class="cls-6" cx="156" cy="446.58" r="5"/><circle class="cls-6" cx="151.8" cy="429.58" r="5"/><circle class="cls-6" cx="166.86" cy="445.35" r="5"/><circle class="cls-6" cx="149.13" cy="435.45" r="5"/><circle class="cls-6" cx="161.11" cy="428.62" r="5"/><circle class="cls-6" cx="161.75" cy="419.92" r="5"/><circle class="cls-6" cx="145.12" cy="446.88" r="5"/><circle class="cls-6" cx="158.96" cy="439.66" r="5"/><circle class="cls-6" cx="164.44" cy="444.17" r="5"/><circle class="cls-6" cx="180.09" cy="425.02" r="5"/><circle class="cls-6" cx="169.92" cy="398.49" r="5"/><circle class="cls-6" cx="171.99" cy="389.66" r="5"/><circle class="cls-6" cx="160.63" cy="445.42" r="5"/><circle class="cls-6" cx="163.65" cy="433.48" r="5"/><circle class="cls-6" cx="161.45" cy="448.24" r="5"/><circle class="cls-6" cx="166" cy="439.9" r="5"/><circle class="cls-6" cx="163.82" cy="431.38" r="5"/><circle class="cls-6" cx="155.4" cy="457.45" r="5"/><circle class="cls-6" cx="153.87" cy="458.14" r="5"/><circle class="cls-6" cx="173.29" cy="420.57" r="5"/><circle class="cls-6" cx="155.38" cy="464.84" r="5"/><circle class="cls-6" cx="156.81" cy="432.14" r="5"/><circle class="cls-6" cx="160.68" cy="450.09" r="5"/><circle class="cls-6" cx="155.23" cy="457.62" r="5"/><circle class="cls-6" cx="122.45" cy="458.95" r="5"/><circle class="cls-6" cx="174.25" cy="426.81" r="5"/><circle class="cls-6" cx="160.08" cy="446.2" r="5"/><circle class="cls-6" cx="163.64" cy="421.67" r="5"/><circle class="cls-6" cx="177.46" cy="427.5" r="5"/><circle class="cls-6" cx="158.5" cy="444.32" r="5"/><circle class="cls-6" cx="157.67" cy="423.3" r="5"/><circle class="cls-6" cx="154.22" cy="444.55" r="5"/><circle class="cls-6" cx="154.26" cy="452.56" r="5"/><circle class="cls-6" cx="142.13" cy="429.28" r="5"/><circle class="cls-6" cx="167.55" cy="411.26" r="5"/><circle class="cls-6" cx="139.17" cy="411.78" r="5"/><circle class="cls-6" cx="148.99" cy="462.01" r="5"/><circle class="cls-6" cx="125.35" cy="475.87" r="5"/><circle class="cls-6" cx="137.36" cy="447.97" r="5"/><circle class="cls-6" cx="166.75" cy="429.7" r="5"/><circle class="cls-6" cx="159.46" cy="411.32" r="5"/><circle class="cls-6" cx="163.12" cy="417.2" r="5"/><circle class="cls-6" cx="110.22" cy="425.79" r="5"/><circle class="cls-6" cx="136.16" cy="461.73" r="5"/><circle class="cls-6" cx="158.52" cy="436.98" r="5"/><circle class="cls-6" cx="175.29" cy="380.58" r="5"/><circle class="cls-6" cx="148.8" cy="462.28" r="5"/><circle class="cls-6" cx="138.72" cy="429.06" r="5"/><circle class="cls-6" cx="160.3" cy="434.13" r="5"/><circle class="cls-6" cx="152.45" cy="460.56" r="5"/><circle class="cls-6" cx="120.14" cy="453.31" r="5"/><circle class="cls-6" cx="176.22" cy="424.96" r="5"/><circle class="cls-6" cx="175.67" cy="389.22" r="5"/><circle class="cls-6" cx="161.4" cy="434.37" r="5"/><circle class="cls-6" cx="163.86" cy="421.07" r="5"/><circle class="cls-6" cx="160.93" cy="439.55" r="5"/><circle class="cls-6" cx="122.7" cy="463.19" r="5"/><circle class="cls-6" cx="140.5" cy="454.71" r="5"/><circle class="cls-6" cx="155.59" cy="447.95" r="5"/><circle class="cls-6" cx="135.59" cy="461.03" r="5"/><circle class="cls-6" cx="142.97" cy="451.95" r="5"/><circle class="cls-6" cx="165.95" cy="387.09" r="5"/><circle class="cls-6" cx="150.87" cy="452.94" r="5"/><circle class="cls-6" cx="144.18" cy="453.39" r="5"/><circle class="cls-6" cx="157.39" cy="380.77" r="5"/><circle class="cls-6" cx="154.69" cy="452.89" r="5"/><circle class="cls-6" cx="150.37" cy="448.68" r="5"/><circle class="cls-6" cx="156.48" cy="446.44" r="5"/><circle class="cls-6" cx="135.3" cy="452.9" r="5"/><circle class="cls-6" cx="164.94" cy="416.94" r="5"/><circle class="cls-6" cx="168.25" cy="412.5" r="5"/><circle class="cls-6" cx="172.52" cy="405.18" r="5"/><circle class="cls-6" cx="161.87" cy="417.58" r="5"/><circle class="cls-6" cx="155.76" cy="401.79" r="5"/><circle class="cls-6" cx="163.68" cy="426.47" r="5"/><circle class="cls-6" cx="135.03" cy="442.81" r="5"/><circle class="cls-6" cx="158.66" cy="419.68" r="5"/><circle class="cls-6" cx="166.99" cy="409.89" r="5"/><circle class="cls-6" cx="173.52" cy="410.23" r="5"/><circle class="cls-6" cx="114.6" cy="454.25" r="5"/><circle class="cls-6" cx="160.56" cy="443.4" r="5"/><circle class="cls-6" cx="138.82" cy="440.53" r="5"/><circle class="cls-6" cx="180.09" cy="422.23" r="5"/><circle class="cls-6" cx="163.86" cy="429.95" r="5"/><circle class="cls-6" cx="165.29" cy="417.12" r="5"/><circle class="cls-6" cx="166" cy="428.54" r="5"/><circle class="cls-6" cx="173.33" cy="405.04" r="5"/><circle class="cls-6" cx="158.56" cy="446.32" r="5"/><circle class="cls-6" cx="142.81" cy="414.29" r="5"/><circle class="cls-6" cx="154.55" cy="451.28" r="5"/><circle class="cls-6" cx="121.76" cy="450.51" r="5"/><circle class="cls-6" cx="160.12" cy="421.61" r="5"/><circle class="cls-6" cx="167" cy="408.71" r="5"/><circle class="cls-6" cx="148.8" cy="427.02" r="5"/><circle class="cls-6" cx="169.77" cy="426.71" r="5"/><circle class="cls-6" cx="123.68" cy="464.99" r="5"/><circle class="cls-6" cx="128.26" cy="450.63" r="5"/><circle class="cls-6" cx="164.07" cy="441.93" r="5"/><circle class="cls-6" cx="160.34" cy="438.52" r="5"/><circle class="cls-6" cx="122.72" cy="451.91" r="5"/><circle class="cls-6" cx="162.45" cy="416.77" r="5"/><circle class="cls-6" cx="166.2" cy="405.38" r="5"/><circle class="cls-6" cx="161.63" cy="419.64" r="5"/><circle class="cls-6" cx="118.7" cy="452.81" r="5"/><circle class="cls-6" cx="98.87" cy="441.6" r="5"/><circle class="cls-6" cx="165.1" cy="438.75" r="5"/><circle class="cls-6" cx="121.58" cy="441.63" r="5"/><circle class="cls-6" cx="132.49" cy="450.73" r="5"/><circle class="cls-6" cx="161.36" cy="438.13" r="5"/><circle class="cls-6" cx="144.53" cy="453.19" r="5"/><circle class="cls-6" cx="149.44" cy="461.41" r="5"/><circle class="cls-6" cx="165.79" cy="437.74" r="5"/><circle class="cls-6" cx="149.93" cy="453.25" r="5"/><circle class="cls-6" cx="142.81" cy="460.34" r="5"/><circle class="cls-6" cx="151.71" cy="452.66" r="5"/><circle class="cls-6" cx="144.55" cy="454.29" r="5"/><circle class="cls-6" cx="154.7" cy="451.15" r="5"/><circle class="cls-6" cx="154.12" cy="455.83" r="5"/><circle class="cls-6" cx="158.48" cy="429.93" r="5"/><circle class="cls-6" cx="176.29" cy="406.13" r="5"/><circle class="cls-6" cx="174.7" cy="408.86" r="5"/><circle class="cls-6" cx="152.97" cy="437.02" r="5"/><circle class="cls-6" cx="160.31" cy="438.67" r="5"/><circle class="cls-6" cx="163.27" cy="424.21" r="5"/><circle class="cls-6" cx="158.55" cy="416.61" r="5"/><circle class="cls-6" cx="144.66" cy="461.84" r="5"/><circle class="cls-6" cx="145.75" cy="446.85" r="5"/><circle class="cls-6" cx="146.27" cy="448.72" r="5"/><circle class="cls-6" cx="153.21" cy="453.7" r="5"/><circle class="cls-6" cx="118.68" cy="475.01" r="5"/><circle class="cls-6" cx="152.81" cy="445.75" r="5"/><circle class="cls-6" cx="150.09" cy="457.29" r="5"/><circle class="cls-6" cx="161.77" cy="417.86" r="5"/><circle class="cls-6" cx="156.33" cy="424.2" r="5"/><circle class="cls-6" cx="165.11" cy="418.93" r="5"/><circle class="cls-6" cx="164.59" cy="412.62" r="5"/><circle class="cls-6" cx="162.11" cy="427.82" r="5"/><circle class="cls-6" cx="124.77" cy="452.38" r="5"/><circle class="cls-6" cx="175.6" cy="389.11" r="5"/><circle class="cls-6" cx="165.96" cy="418.64" r="5"/><circle class="cls-6" cx="110.21" cy="454.74" r="5"/><circle class="cls-6" cx="148.35" cy="452.43" r="5"/><circle class="cls-6" cx="153.15" cy="449.48" r="5"/><circle class="cls-6" cx="156.09" cy="435.14" r="5"/><circle class="cls-6" cx="143.37" cy="434.67" r="5"/><circle class="cls-6" cx="161.68" cy="419.44" r="5"/><circle class="cls-6" cx="166.39" cy="412.94" r="5"/><circle class="cls-6" cx="159.62" cy="433.25" r="5"/><circle class="cls-6" cx="166.25" cy="415.67" r="5"/><circle class="cls-6" cx="143.7" cy="454.56" r="5"/><circle class="cls-6" cx="149.82" cy="456.77" r="5"/><circle class="cls-6" cx="152.67" cy="458.48" r="5"/><circle class="cls-6" cx="159.43" cy="441.55" r="5"/><circle class="cls-6" cx="154.75" cy="431.75" r="5"/><circle class="cls-6" cx="142.51" cy="460.26" r="5"/><circle class="cls-6" cx="149.97" cy="440.95" r="5"/><circle class="cls-6" cx="149.75" cy="467.19" r="5"/><circle class="cls-6" cx="154.94" cy="453.62" r="5"/><circle class="cls-6" cx="158.06" cy="460.08" r="5"/><circle class="cls-6" cx="150.94" cy="457.19" r="5"/><circle class="cls-6" cx="152.87" cy="452.09" r="5"/><circle class="cls-6" cx="147.3" cy="454.31" r="5"/><circle class="cls-6" cx="162.38" cy="412.58" r="5"/><circle class="cls-6" cx="157.28" cy="435.77" r="5"/><circle class="cls-6" cx="152.98" cy="431.32" r="5"/><circle class="cls-6" cx="136.67" cy="466.63" r="5"/><circle class="cls-6" cx="160.17" cy="437.71" r="5"/><circle class="cls-6" cx="156.89" cy="440.79" r="5"/><circle class="cls-6" cx="130.02" cy="440.75" r="5"/><circle class="cls-6" cx="155.01" cy="436.07" r="5"/><circle class="cls-6" cx="155.88" cy="448.23" r="5"/><circle class="cls-6" cx="156.37" cy="440.99" r="5"/><circle class="cls-6" cx="148.16" cy="422.74" r="5"/><circle class="cls-6" cx="129.35" cy="464.07" r="5"/><circle class="cls-6" cx="131.24" cy="470.53" r="5"/><circle class="cls-6" cx="150.3" cy="437.27" r="5"/><circle class="cls-6" cx="160.59" cy="429.75" r="5"/><circle class="cls-6" cx="143.96" cy="435.92" r="5"/><circle class="cls-6" cx="155.93" cy="441.57" r="5"/><circle class="cls-6" cx="161.33" cy="430.27" r="5"/><circle class="cls-6" cx="149.72" cy="457.17" r="5"/><circle class="cls-6" cx="156.3" cy="448.88" r="5"/><circle class="cls-6" cx="158.19" cy="435.95" r="5"/><circle class="cls-6" cx="120.82" cy="441.57" r="5"/><circle class="cls-6" cx="180.21" cy="389.64" r="5"/><circle class="cls-6" cx="157.12" cy="384.49" r="5"/><circle class="cls-6" cx="169.49" cy="418.47" r="5"/><circle class="cls-6" cx="173.93" cy="393.26" r="5"/><circle class="cls-6" cx="168.07" cy="414.52" r="5"/><circle class="cls-6" cx="143.39" cy="442.85" r="5"/><circle class="cls-6" cx="167.09" cy="436.93" r="5"/><circle class="cls-6" cx="182.51" cy="405.9" r="5"/><circle class="cls-6" cx="163.8" cy="422.8" r="5"/><circle class="cls-6" cx="159.76" cy="400.33" r="5"/><circle class="cls-6" cx="174.24" cy="385.41" r="5"/><circle class="cls-6" cx="169.49" cy="415.64" r="5"/><circle class="cls-6" cx="159.69" cy="434.54" r="5"/><circle class="cls-6" cx="172.99" cy="406.15" r="5"/><circle class="cls-6" cx="169.78" cy="406.37" r="5"/><circle class="cls-6" cx="160.82" cy="429.94" r="5"/><circle class="cls-6" cx="170.45" cy="388.61" r="5"/><circle class="cls-6" cx="155.7" cy="447" r="5"/><circle class="cls-6" cx="166.73" cy="394.55" r="5"/><circle class="cls-6" cx="152.93" cy="422.82" r="5"/><circle class="cls-6" cx="167.87" cy="413.46" r="5"/><circle class="cls-6" cx="169.35" cy="412.75" r="5"/><circle class="cls-6" cx="182.84" cy="364.34" r="5"/><circle class="cls-6" cx="135.63" cy="432.21" r="5"/><circle class="cls-6" cx="171.2" cy="413.35" r="5"/><circle class="cls-6" cx="169.64" cy="404.2" r="5"/><circle class="cls-6" cx="174.57" cy="398.9" r="5"/><circle class="cls-6" cx="161.41" cy="426.14" r="5"/><circle class="cls-6" cx="177.09" cy="334.65" r="5"/><circle class="cls-6" cx="162.57" cy="428.12" r="5"/><circle class="cls-6" cx="162.64" cy="393.45" r="5"/><circle class="cls-6" cx="174.84" cy="372.84" r="5"/><circle class="cls-6" cx="165.85" cy="424.32" r="5"/><circle class="cls-6" cx="170.43" cy="409.63" r="5"/><circle class="cls-6" cx="164.04" cy="414.66" r="5"/><circle class="cls-6" cx="159.49" cy="405.83" r="5"/><circle class="cls-6" cx="167.83" cy="404.32" r="5"/><circle class="cls-6" cx="164.74" cy="360.81" r="5"/><circle class="cls-6" cx="167.73" cy="361.53" r="5"/><circle class="cls-6" cx="169.94" cy="395.49" r="5"/><circle class="cls-6" cx="176.61" cy="389.05" r="5"/><circle class="cls-6" cx="162.44" cy="438.18" r="5"/><circle class="cls-6" cx="156.17" cy="438.04" r="5"/><circle class="cls-6" cx="133.64" cy="466.49" r="5"/><circle class="cls-6" cx="138.37" cy="472.46" r="5"/><circle class="cls-6" cx="163.86" cy="441.71" r="5"/><circle class="cls-6" cx="175.34" cy="403.2" r="5"/><circle class="cls-6" cx="171.43" cy="413.33" r="5"/><circle class="cls-6" cx="174.61" cy="402.55" r="5"/><circle class="cls-6" cx="160.39" cy="391.98" r="5"/><circle class="cls-6" cx="154.36" cy="434.5" r="5"/><circle class="cls-6" cx="161.58" cy="445.89" r="5"/><circle class="cls-6" cx="161.86" cy="433.24" r="5"/><circle class="cls-6" cx="131.45" cy="466.82" r="5"/><circle class="cls-6" cx="155.85" cy="438.49" r="5"/><circle class="cls-6" cx="172.08" cy="414.13" r="5"/><circle class="cls-6" cx="170.52" cy="429.78" r="5"/><circle class="cls-6" cx="174.55" cy="400.9" r="5"/><circle class="cls-6" cx="174.17" cy="398.65" r="5"/><circle class="cls-6" cx="166.03" cy="425.4" r="5"/><circle class="cls-6" cx="161.78" cy="427.62" r="5"/><circle class="cls-6" cx="147.22" cy="426.3" r="5"/><circle class="cls-6" cx="140.53" cy="427.09" r="5"/><circle class="cls-6" cx="167.61" cy="413.41" r="5"/><circle class="cls-6" cx="171.95" cy="403.38" r="5"/><circle class="cls-6" cx="171.11" cy="417.42" r="5"/><circle class="cls-6" cx="168.96" cy="421.5" r="5"/><circle class="cls-6" cx="171.22" cy="377.42" r="5"/><circle class="cls-6" cx="148.34" cy="423.14" r="5"/><circle class="cls-6" cx="155.14" cy="445.51" r="5"/><circle class="cls-6" cx="172.61" cy="408.6" r="5"/><circle class="cls-6" cx="195.9" cy="431.72" r="5"/><circle class="cls-6" cx="171.2" cy="400.55" r="5"/><circle class="cls-6" cx="151.37" cy="439.44" r="5"/><circle class="cls-6" cx="169.15" cy="417.83" r="5"/><circle class="cls-6" cx="165.86" cy="422.46" r="5"/><circle class="cls-6" cx="154.9" cy="450.14" r="5"/><circle class="cls-6" cx="170.65" cy="418.05" r="5"/><circle class="cls-6" cx="168.76" cy="401.88" r="5"/><circle class="cls-6" cx="208.5" cy="386.41" r="5"/><circle class="cls-6" cx="133.95" cy="454.96" r="5"/><circle class="cls-6" cx="147.45" cy="452.27" r="5"/><circle class="cls-6" cx="152.3" cy="410.95" r="5"/><circle class="cls-6" cx="147.77" cy="447.78" r="5"/><circle class="cls-6" cx="161.73" cy="406.01" r="5"/><circle class="cls-6" cx="165.96" cy="421.87" r="5"/><circle class="cls-6" cx="160.58" cy="440.13" r="5"/><circle class="cls-6" cx="165.71" cy="417.25" r="5"/><circle class="cls-6" cx="179.79" cy="379.63" r="5"/><circle class="cls-6" cx="166.11" cy="424.08" r="5"/><circle class="cls-6" cx="166.82" cy="430.19" r="5"/><circle class="cls-6" cx="157.61" cy="451.1" r="5"/><circle class="cls-6" cx="157.5" cy="425.05" r="5"/><circle class="cls-6" cx="152.33" cy="442.34" r="5"/><circle class="cls-6" cx="159.33" cy="456.21" r="5"/><circle class="cls-6" cx="177.22" cy="417.08" r="5"/><circle class="cls-6" cx="147.45" cy="447.96" r="5"/><circle class="cls-6" cx="152.17" cy="458.1" r="5"/><circle class="cls-6" cx="160.04" cy="429.73" r="5"/><circle class="cls-6" cx="158.8" cy="441.07" r="5"/><circle class="cls-6" cx="154.59" cy="449.4" r="5"/><circle class="cls-6" cx="158.12" cy="425.83" r="5"/><circle class="cls-6" cx="165.25" cy="432.83" r="5"/><circle class="cls-6" cx="162.85" cy="434.61" r="5"/><circle class="cls-6" cx="162.11" cy="447.03" r="5"/><circle class="cls-6" cx="165.19" cy="440.87" r="5"/><circle class="cls-6" cx="146.24" cy="435.22" r="5"/><circle class="cls-6" cx="150.07" cy="454.63" r="5"/><circle class="cls-6" cx="157.17" cy="440.24" r="5"/><circle class="cls-6" cx="154.54" cy="434.29" r="5"/><circle class="cls-6" cx="168.68" cy="416.51" r="5"/><circle class="cls-6" cx="163.09" cy="443.2" r="5"/><circle class="cls-6" cx="168.76" cy="415.6" r="5"/><circle class="cls-6" cx="173.41" cy="393.54" r="5"/><circle class="cls-6" cx="149.17" cy="407.17" r="5"/><circle class="cls-6" cx="166.04" cy="412.84" r="5"/><circle class="cls-6" cx="159.55" cy="405.39" r="5"/><circle class="cls-6" cx="176.9" cy="380.68" r="5"/><circle class="cls-6" cx="151.32" cy="444.34" r="5"/><circle class="cls-6" cx="164.28" cy="433.73" r="5"/><circle class="cls-6" cx="159.5" cy="438.25" r="5"/><circle class="cls-6" cx="152.06" cy="449.08" r="5"/><circle class="cls-6" cx="167.19" cy="408.21" r="5"/><circle class="cls-6" cx="164.33" cy="413.52" r="5"/><circle class="cls-6" cx="168.71" cy="402.09" r="5"/><circle class="cls-6" cx="168.13" cy="400.8" r="5"/><circle class="cls-6" cx="118.91" cy="454.66" r="5"/><circle class="cls-6" cx="172.84" cy="384.09" r="5"/><circle class="cls-6" cx="153.39" cy="436.91" r="5"/><circle class="cls-6" cx="159.52" cy="407.9" r="5"/><circle class="cls-6" cx="156.61" cy="426.44" r="5"/><circle class="cls-6" cx="150.73" cy="437.25" r="5"/><circle class="cls-6" cx="169.55" cy="409.31" r="5"/><circle class="cls-6" cx="167.83" cy="403.46" r="5"/><circle class="cls-6" cx="163.5" cy="417.17" r="5"/><circle class="cls-6" cx="141.75" cy="378.36" r="5"/><circle class="cls-6" cx="153.65" cy="428.8" r="5"/><circle class="cls-6" cx="138.73" cy="465.11" r="5"/><circle class="cls-6" cx="149.62" cy="436.68" r="5"/><circle class="cls-6" cx="157.79" cy="431.13" r="5"/><circle class="cls-6" cx="150.18" cy="435.94" r="5"/><circle class="cls-6" cx="140.85" cy="454.36" r="5"/><circle class="cls-6" cx="145.98" cy="462.53" r="5"/><circle class="cls-6" cx="151.95" cy="452.18" r="5"/><circle class="cls-6" cx="153.27" cy="455.54" r="5"/><circle class="cls-6" cx="166.14" cy="414.48" r="5"/><circle class="cls-6" cx="147.33" cy="443.85" r="5"/><circle class="cls-6" cx="165.56" cy="397.01" r="5"/><circle class="cls-6" cx="125.4" cy="460.87" r="5"/><circle class="cls-6" cx="139.7" cy="442.52" r="5"/><circle class="cls-6" cx="144.15" cy="458.16" r="5"/><circle class="cls-6" cx="156.27" cy="428.73" r="5"/><circle class="cls-6" cx="146.5" cy="458.14" r="5"/><circle class="cls-6" cx="160.3" cy="443.5" r="5"/><circle class="cls-6" cx="149.72" cy="458.34" r="5"/><circle class="cls-6" cx="164.16" cy="418.07" r="5"/><circle class="cls-6" cx="120.63" cy="453.07" r="5"/><circle class="cls-6" cx="157.64" cy="448.49" r="5"/><circle class="cls-6" cx="143.76" cy="456" r="5"/><circle class="cls-6" cx="143.47" cy="455.71" r="5"/><circle class="cls-6" cx="144.91" cy="449.56" r="5"/><circle class="cls-6" cx="142.77" cy="452.42" r="5"/><circle class="cls-6" cx="167.88" cy="401.48" r="5"/><circle class="cls-6" cx="172.76" cy="399.53" r="5"/><circle class="cls-6" cx="158.28" cy="384.73" r="5"/><circle class="cls-6" cx="169.98" cy="389.16" r="5"/><circle class="cls-6" cx="130.52" cy="466.57" r="5"/><circle class="cls-6" cx="119.36" cy="474.48" r="5"/><circle class="cls-6" cx="144.44" cy="441.94" r="5"/><circle class="cls-6" cx="124.55" cy="463.89" r="5"/><circle class="cls-6" cx="130.4" cy="452.34" r="5"/><circle class="cls-6" cx="158.52" cy="427.15" r="5"/><circle class="cls-6" cx="148.6" cy="435.45" r="5"/><circle class="cls-6" cx="149.39" cy="445.76" r="5"/><circle class="cls-6" cx="143.97" cy="457.49" r="5"/><circle class="cls-6" cx="161.13" cy="443.41" r="5"/><circle class="cls-6" cx="150.67" cy="419.81" r="5"/><circle class="cls-6" cx="152.34" cy="439.77" r="5"/><circle class="cls-6" cx="156.27" cy="437.29" r="5"/><circle class="cls-6" cx="166.75" cy="390.37" r="5"/><circle class="cls-6" cx="119.84" cy="469.94" r="5"/><circle class="cls-6" cx="117.72" cy="460.04" r="5"/><circle class="cls-6" cx="127.59" cy="435.2" r="5"/><circle class="cls-6" cx="154.37" cy="435.17" r="5"/><circle class="cls-6" cx="155.35" cy="437.91" r="5"/><circle class="cls-6" cx="160.27" cy="396.72" r="5"/><circle class="cls-6" cx="152.05" cy="432.88" r="5"/><circle class="cls-6" cx="160.33" cy="409.95" r="5"/><circle class="cls-6" cx="175.11" cy="376.77" r="5"/><circle class="cls-6" cx="138.34" cy="446.64" r="5"/><circle class="cls-6" cx="139.24" cy="450.66" r="5"/><circle class="cls-6" cx="155.62" cy="388.52" r="5"/><circle class="cls-6" cx="134.91" cy="447.49" r="5"/><circle class="cls-6" cx="138" cy="440.86" r="5"/><circle class="cls-6" cx="144.47" cy="440.11" r="5"/><circle class="cls-6" cx="137.31" cy="448.72" r="5"/><circle class="cls-6" cx="155.21" cy="400.3" r="5"/><circle class="cls-6" cx="132.72" cy="448.29" r="5"/><circle class="cls-6" cx="132.42" cy="447.43" r="5"/><circle class="cls-6" cx="134.39" cy="444.1" r="5"/><circle class="cls-6" cx="128.56" cy="449.89" r="5"/><circle class="cls-6" cx="129.47" cy="443.56" r="5"/><circle class="cls-6" cx="127.96" cy="451.7" r="5"/><circle class="cls-6" cx="111.1" cy="446.11" r="5"/><circle class="cls-6" cx="171.6" cy="355.52" r="5"/><circle class="cls-6" cx="144.86" cy="442.26" r="5"/><circle class="cls-6" cx="145.34" cy="437.55" r="5"/><circle class="cls-6" cx="158.94" cy="414.13" r="5"/><circle class="cls-6" cx="163.34" cy="417.13" r="5"/><circle class="cls-6" cx="152.67" cy="426.76" r="5"/><circle class="cls-6" cx="158.01" cy="415.46" r="5"/><circle class="cls-6" cx="145.39" cy="434.63" r="5"/><circle class="cls-6" cx="159.79" cy="416.71" r="5"/><circle class="cls-6" cx="136.28" cy="439.89" r="5"/><circle class="cls-6" cx="171.84" cy="374.37" r="5"/><circle class="cls-6" cx="158.17" cy="433.51" r="5"/><circle class="cls-6" cx="154.13" cy="441.11" r="5"/><circle class="cls-6" cx="166.41" cy="439.34" r="5"/><circle class="cls-6" cx="156.9" cy="438.29" r="5"/><circle class="cls-6" cx="147.16" cy="448.56" r="5"/><circle class="cls-6" cx="142.08" cy="443.69" r="5"/><circle class="cls-6" cx="163.59" cy="398.68" r="5"/><circle class="cls-6" cx="114.09" cy="469.31" r="5"/><circle class="cls-6" cx="109.46" cy="475.28" r="5"/><circle class="cls-6" cx="144.37" cy="463.37" r="5"/><circle class="cls-6" cx="136.45" cy="440.24" r="5"/><circle class="cls-6" cx="170.81" cy="379.86" r="5"/><circle class="cls-6" cx="165.67" cy="407.06" r="5"/><circle class="cls-6" cx="159.56" cy="437.94" r="5"/><circle class="cls-6" cx="167.76" cy="405.3" r="5"/><circle class="cls-6" cx="153.27" cy="427.27" r="5"/><circle class="cls-6" cx="146.62" cy="435.64" r="5"/><circle class="cls-6" cx="181.39" cy="455.41" r="5"/><circle class="cls-6" cx="137.2" cy="462.91" r="5"/><circle class="cls-6" cx="142.82" cy="445.02" r="5"/><circle class="cls-6" cx="138.84" cy="455.1" r="5"/><circle class="cls-6" cx="149.79" cy="430.67" r="5"/><circle class="cls-6" cx="149.39" cy="427.38" r="5"/><circle class="cls-6" cx="147.59" cy="428.54" r="5"/><circle class="cls-6" cx="156.36" cy="430.43" r="5"/><circle class="cls-6" cx="142.22" cy="402.37" r="5"/><circle class="cls-6" cx="154.05" cy="423.02" r="5"/><circle class="cls-6" cx="146.58" cy="439.53" r="5"/><circle class="cls-6" cx="149.94" cy="413.88" r="5"/></g></g></svg>