<svg xmlns="http://www.w3.org/2000/svg" viewBox="0 0 584.92 535.3"><defs><style>.cls-1{fill:#d6e6f2;}.cls-2,.cls-3{fill:none;stroke:#fff;}.cls-2{stroke-width:2px;}.cls-4,.cls-5{isolation:isolate;font-family:Helvetica;}.cls-4{font-size:10px;}.cls-4,.cls-5,.cls-6{fill:#2f3a8f;}.cls-5{font-size:16px;}.cls-6{stroke:#ddd;}</style></defs><g id="Layer_2" data-name="Layer 2"><g id="Layer_1-2" data-name="Layer 1"><path class="cls-1" d="M15.11,487.61H569.36L292.23,7.61Z"/><line class="cls-2" x1="569.36" y1="487.61" x2="15.11" y2="487.61"/><line class="cls-3" x1="541.65" y1="439.61" x2="42.82" y2="439.61"/><line class="cls-2" x1="513.94" y1="391.61" x2="70.53" y2="391.61"/><line class="cls-3" x1="486.22" y1="343.61" x2="98.24" y2="343.61"/><line class="cls-2" x1="458.51" y1="295.61" x2="125.96" y2="295.61"/><line class="cls-3" x1="430.8" y1="247.61" x2="153.67" y2="247.61"/><line class="cls-2" x1="403.08" y1="199.61" x2="181.38" y2="199.61"/><line class="cls-3" x1="375.37" y1="151.61" x2="209.09" y2="151.61"/><line class="cls-2" x1="347.66" y1="103.61" x2="236.81" y2="103.61"/><line class="cls-3" x1="319.95" y1="55.61" x2="264.52" y2="55.61"/><line class="cls-2" x1="292.23" y1="7.61" x2="569.36" y2="487.61"/><line class="cls-3" x1="264.52" y1="55.61" x2="513.94" y2="487.61"/><line class="cls-2" x1="236.81" y1="103.61" x2="458.51" y2="487.61"/><line class="cls-3" x1="209.09" y1="151.61" x2="403.08" y2="487.61"/><line class="cls-2" x1="181.38" y1="199.61" x2="347.66" y2="487.61"/><line class="cls-3" x1="153.67" y1="247.61" x2="292.23" y2="487.61"/><line class="cls-2" x1="125.96" y1="295.61" x2="236.81" y2="487.61"/><line class="cls-3" x1="98.24" y1="343.61" x2="181.38" y2="487.61"/><line class="cls-2" x1="70.53" y1="391.61" x2="125.96" y2="487.61"/><line class="cls-3" x1="42.82" y1="439.61" x2="70.53" y2="487.61"/><line class="cls-2" x1="15.11" y1="487.61" x2="292.23" y2="7.61"/><line class="cls-3" x1="70.53" y1="487.61" x2="319.95" y2="55.61"/><line class="cls-2" x1="125.96" y1="487.61" x2="347.66" y2="103.61"/><line class="cls-3" x1="181.38" y1="487.61" x2="375.37" y2="151.61"/><line class="cls-2" x1="236.81" y1="487.61" x2="403.08" y2="199.61"/><line class="cls-3" x1="292.23" y1="487.61" x2="430.8" y2="247.61"/><line class="cls-2" x1="347.66" y1="487.61" x2="458.51" y2="295.61"/><line class="cls-3" x1="403.08" y1="487.61" x2="486.22" y2="343.61"/><line class="cls-2" x1="458.51" y1="487.61" x2="513.94" y2="391.61"/><line class="cls-3" x1="513.94" y1="487.61" x2="541.65" y2="439.61"/><text class="cls-4" transform="translate(579.36 490.61)">0</text><text class="cls-4" transform="translate(523.94 394.61)">20</text><text class="cls-4" transform="translate(468.51 298.61)">40</text><text class="cls-4" transform="translate(413.08 202.61)">60</text><text class="cls-4" transform="translate(357.66 106.61)">80</text><text class="cls-4" transform="translate(302.23 10.61)">100</text><text class="cls-4" transform="translate(286.85 4.29) rotate(60)">0</text><text class="cls-4" transform="translate(228.65 95.48) rotate(60)">20</text><text class="cls-4" transform="translate(173.22 191.48) rotate(60)">40</text><text class="cls-4" transform="translate(117.8 287.48) rotate(60)">60</text><text class="cls-4" transform="translate(62.37 383.48) rotate(60)">80</text><text class="cls-4" transform="translate(4.17 474.66) rotate(60)">100</text><text class="cls-4" transform="translate(14.92 493.93) rotate(-60)">0</text><text class="cls-4" transform="translate(122.99 498.74) rotate(-60)">20</text><text class="cls-4" transform="translate(233.84 498.74) rotate(-60)">40</text><text class="cls-4" transform="translate(344.7 498.74) rotate(-60)">60</text><text class="cls-4" transform="translate(455.55 498.74) rotate(-60)">80</text><text class="cls-4" transform="translate(563.62 503.56) rotate(-60)">100</text><text class="cls-5" transform="translate(410.08 131.73) rotate(60)">Replies (% of total interactions)</text><text class="cls-5" transform="translate(67.67 316.56) rotate(-60)">Likes (% of total interactions)</text><text class="cls-5" transform="translate(174.85 527.61)">Retweets (% of total interactions)</text><circle class="cls-6" cx="121.48" cy="452.54" r="5"/><circle class="cls-6" cx="100.71" cy="440.94" r="5"/><circle class="cls-6" cx="113.53" cy="442.4" r="5"/><circle class="cls-6" cx="115.46" cy="447.36" r="5"/><circle class="cls-6" cx="74.03" cy="467.1" r="5"/><circle class="cls-6" cx="66.6" cy="462.51" r="5"/><circle class="cls-6" cx="112.84" cy="401.13" r="5"/><circle class="cls-6" cx="93.39" cy="458.87" r="5"/><circle class="cls-6" cx="108.31" cy="453.06" r="5"/><circle class="cls-6" cx="109.09" cy="452.15" r="5"/><circle class="cls-6" cx="85.06" cy="460.4" r="5"/><circle class="cls-6" cx="91.64" cy="454.8" r="5"/><circle class="cls-6" cx="116.48" cy="429.83" r="5"/><circle class="cls-6" cx="110.49" cy="428.95" r="5"/><circle class="cls-6" cx="98.09" cy="433.04" r="5"/><circle class="cls-6" cx="109.18" cy="429.78" r="5"/><circle class="cls-6" cx="96.9" cy="439.42" r="5"/><circle class="cls-6" cx="99.52" cy="452.92" r="5"/><circle class="cls-6" cx="128.64" cy="432.27" r="5"/><circle class="cls-6" cx="103.23" cy="452.14" r="5"/><circle class="cls-6" cx="130.94" cy="417.55" r="5"/><circle class="cls-6" cx="87.6" cy="451.27" r="5"/><circle class="cls-6" cx="116.52" cy="440.42" r="5"/><circle class="cls-6" cx="102.54" cy="435.76" r="5"/><circle class="cls-6" cx="114.18" cy="430.16" r="5"/><circle class="cls-6" cx="106.82" cy="452.38" r="5"/><circle class="cls-6" cx="117.19" cy="433.37" r="5"/><circle class="cls-6" cx="120.35" cy="425.58" r="5"/><circle class="cls-6" cx="99.42" cy="459.97" r="5"/><circle class="cls-6" cx="121.34" cy="407.31" r="5"/><circle class="cls-6" cx="119" cy="422.5" r="5"/><circle class="cls-6" cx="97.12" cy="458.48" r="5"/><circle class="cls-6" cx="130.7" cy="441.08" r="5"/><circle class="cls-6" cx="115.33" cy="436.78" r="5"/><circle class="cls-6" cx="94.53" cy="460.08" r="5"/><circle class="cls-6" cx="111.98" cy="446.34" r="5"/><circle class="cls-6" cx="142.42" cy="397.83" r="5"/><circle class="cls-6" cx="100.37" cy="455.07" r="5"/><circle class="cls-6" cx="118.12" cy="444.3" r="5"/><circle class="cls-6" cx="106.62" cy="446.25" r="5"/><circle class="cls-6" cx="109.4" cy="446.64" r="5"/><circle class="cls-6" cx="106.98" cy="450.58" r="5"/><circle class="cls-6" cx="113.12" cy="408.91" r="5"/><circle class="cls-6" cx="115.14" cy="424.77" r="5"/><circle class="cls-6" cx="103.74" cy="457.6" r="5"/><circle class="cls-6" cx="104.26" cy="451.2" r="5"/><circle class="cls-6" cx="114.3" cy="436.54" r="5"/><circle class="cls-6" cx="106.69" cy="455.01" r="5"/><circle class="cls-6" cx="93.81" cy="460.55" r="5"/><circle class="cls-6" cx="106.13" cy="446.71" r="5"/><circle class="cls-6" cx="145.92" cy="386.94" r="5"/><circle class="cls-6" cx="107.44" cy="447.96" r="5"/><circle class="cls-6" cx="91.53" cy="450.06" r="5"/><circle class="cls-6" cx="112.56" cy="450.23" r="5"/><circle class="cls-6" cx="118.93" cy="441.81" r="5"/><circle class="cls-6" cx="112.36" cy="442.16" r="5"/><circle class="cls-6" cx="89.87" cy="460.41" r="5"/><circle class="cls-6" cx="88.48" cy="457.02" r="5"/><circle class="cls-6" cx="91.25" cy="443.62" r="5"/><circle class="cls-6" cx="97.67" cy="454.42" r="5"/><circle class="cls-6" cx="112.85" cy="435.3" r="5"/><circle class="cls-6" cx="136.53" cy="426.06" r="5"/><circle class="cls-6" cx="101.48" cy="458.72" r="5"/><circle class="cls-6" cx="73.69" cy="465.99" r="5"/><circle class="cls-6" cx="96.76" cy="448.69" r="5"/><circle class="cls-6" cx="80.33" cy="457.01" r="5"/><circle class="cls-6" cx="103.29" cy="447.18" r="5"/><circle class="cls-6" cx="130.64" cy="381.84" r="5"/><circle class="cls-6" cx="111.77" cy="447.5" r="5"/><circle class="cls-6" cx="101.49" cy="456.25" r="5"/><circle class="cls-6" cx="106.68" cy="435.78" r="5"/><circle class="cls-6" cx="109.36" cy="446.45" r="5"/><circle class="cls-6" cx="98.67" cy="459.56" r="5"/><circle class="cls-6" cx="130.37" cy="436.02" r="5"/><circle class="cls-6" cx="102.95" cy="452.07" r="5"/><circle class="cls-6" cx="99.98" cy="450.98" r="5"/><circle class="cls-6" cx="96.12" cy="459.53" r="5"/><circle class="cls-6" cx="115.36" cy="445.37" r="5"/><circle class="cls-6" cx="102.41" cy="448.51" r="5"/><circle class="cls-6" cx="110.86" cy="439.4" r="5"/><circle class="cls-6" cx="95.58" cy="443.71" r="5"/><circle class="cls-6" cx="125.72" cy="450.88" r="5"/><circle class="cls-6" cx="112.6" cy="438.73" r="5"/><circle class="cls-6" cx="95.62" cy="443.76" r="5"/><circle class="cls-6" cx="112.79" cy="441.74" r="5"/><circle class="cls-6" cx="95.28" cy="467.41" r="5"/><circle class="cls-6" cx="107.75" cy="448.04" r="5"/><circle class="cls-6" cx="107.22" cy="444.15" r="5"/><circle class="cls-6" cx="104.31" cy="457.54" r="5"/><circle class="cls-6" cx="114.8" cy="448.18" r="5"/><circle class="cls-6" cx="99.45" cy="459.3" r="5"/><circle class="cls-6" cx="106.41" cy="459.9" r="5"/><circle class="cls-6" cx="91.06" cy="454.8" r="5"/><circle class="cls-6" cx="117.3" cy="431.57" r="5"/><circle class="cls-6" cx="102.37" cy="461.17" r="5"/><circle class="cls-6" cx="93.94" cy="463.08" r="5"/><circle class="cls-6" cx="109.28" cy="453.5" r="5"/><circle class="cls-6" cx="112.95" cy="439.72" r="5"/><circle class="cls-6" cx="108.65" cy="438.13" r="5"/><circle class="cls-6" cx="123.61" cy="425.64" r="5"/><circle class="cls-6" cx="111.6" cy="444.36" r="5"/><circle class="cls-6" cx="111.51" cy="437.19" r="5"/><circle class="cls-6" cx="110.51" cy="441.36" r="5"/><circle class="cls-6" cx="111.05" cy="438.53" r="5"/><circle class="cls-6" cx="120.43" cy="427.67" r="5"/><circle class="cls-6" cx="121.38" cy="438.23" r="5"/><circle class="cls-6" cx="105.19" cy="445.21" r="5"/><circle class="cls-6" cx="116.06" cy="439.48" r="5"/><circle class="cls-6" cx="100.04" cy="436.23" r="5"/><circle class="cls-6" cx="110.41" cy="439.26" r="5"/><circle class="cls-6" cx="110.56" cy="445.55" r="5"/><circle class="cls-6" cx="107.68" cy="435.21" r="5"/><circle class="cls-6" cx="118.38" cy="430.72" r="5"/><circle class="cls-6" cx="111.45" cy="433.04" r="5"/><circle class="cls-6" cx="123.62" cy="423.74" r="5"/><circle class="cls-6" cx="117.78" cy="432.24" r="5"/><circle class="cls-6" cx="117.3" cy="432.37" r="5"/><circle class="cls-6" cx="117.01" cy="430.4" r="5"/><circle class="cls-6" cx="114.15" cy="443.62" r="5"/><circle class="cls-6" cx="95.99" cy="455.67" r="5"/><circle class="cls-6" cx="117.83" cy="424.48" r="5"/><circle class="cls-6" cx="117.33" cy="429.58" r="5"/><circle class="cls-6" cx="119.96" cy="431.15" r="5"/><circle class="cls-6" cx="106.98" cy="446.07" r="5"/><circle class="cls-6" cx="97.33" cy="462.3" r="5"/><circle class="cls-6" cx="104.26" cy="443.66" r="5"/><circle class="cls-6" cx="96.53" cy="445.9" r="5"/><circle class="cls-6" cx="114.01" cy="424.68" r="5"/><circle class="cls-6" cx="91.04" cy="460.06" r="5"/><circle class="cls-6" cx="105.83" cy="446.63" r="5"/><circle class="cls-6" cx="98.8" cy="459.26" r="5"/><circle class="cls-6" cx="102.37" cy="448.86" r="5"/><circle class="cls-6" cx="117.92" cy="439.17" r="5"/><circle class="cls-6" cx="121.3" cy="424.34" r="5"/><circle class="cls-6" cx="103.64" cy="444.92" r="5"/><circle class="cls-6" cx="123.85" cy="405.72" r="5"/><circle class="cls-6" cx="108.37" cy="431.42" r="5"/><circle class="cls-6" cx="103.98" cy="443.13" r="5"/><circle class="cls-6" cx="110.19" cy="419.91" r="5"/><circle class="cls-6" cx="145.2" cy="359.75" r="5"/><circle class="cls-6" cx="173.65" cy="305.43" r="5"/><circle class="cls-6" cx="155.85" cy="344.65" r="5"/><circle class="cls-6" cx="118.5" cy="408.5" r="5"/><circle class="cls-6" cx="138.07" cy="425.28" r="5"/><circle class="cls-6" cx="133.6" cy="388.42" r="5"/><circle class="cls-6" cx="143.65" cy="368.59" r="5"/><circle class="cls-6" cx="174.81" cy="340.28" r="5"/><circle class="cls-6" cx="148.82" cy="358.19" r="5"/><circle class="cls-6" cx="156.88" cy="381.06" r="5"/><circle class="cls-6" cx="120.59" cy="436.4" r="5"/><circle class="cls-6" cx="151.28" cy="408.5" r="5"/><circle class="cls-6" cx="146.05" cy="377.11" r="5"/><circle class="cls-6" cx="154.74" cy="370.8" r="5"/><circle class="cls-6" cx="139.96" cy="422.41" r="5"/><circle class="cls-6" cx="114.31" cy="444.57" r="5"/><circle class="cls-6" cx="134.52" cy="437.92" r="5"/><circle class="cls-6" cx="114.67" cy="424.36" r="5"/><circle class="cls-6" cx="117.18" cy="419.97" r="5"/><circle class="cls-6" cx="115.65" cy="421.54" r="5"/><circle class="cls-6" cx="127.94" cy="397.03" r="5"/><circle class="cls-6" cx="111.46" cy="416.12" r="5"/><circle class="cls-6" cx="106.48" cy="449.98" r="5"/><circle class="cls-6" cx="125.1" cy="430.81" r="5"/><circle class="cls-6" cx="120.52" cy="423.32" r="5"/><circle class="cls-6" cx="125.14" cy="442.38" r="5"/><circle class="cls-6" cx="147.1" cy="407.23" r="5"/><circle class="cls-6" cx="99.31" cy="436.7" r="5"/><circle class="cls-6" cx="150.6" cy="369.09" r="5"/><circle class="cls-6" cx="121.56" cy="418.91" r="5"/><circle class="cls-6" cx="142.36" cy="369.65" r="5"/><circle class="cls-6" cx="94.31" cy="446.56" r="5"/><circle class="cls-6" cx="118.24" cy="424.29" r="5"/><circle class="cls-6" cx="156.68" cy="369.99" r="5"/><circle class="cls-6" cx="115.54" cy="429.92" r="5"/><circle class="cls-6" cx="132.55" cy="393.27" r="5"/><circle class="cls-6" cx="93.25" cy="449.17" r="5"/><circle class="cls-6" cx="113.1" cy="430.37" r="5"/><circle class="cls-6" cx="138.49" cy="416.95" r="5"/><circle class="cls-6" cx="117.23" cy="408.69" r="5"/><circle class="cls-6" cx="106.81" cy="431.88" r="5"/><circle class="cls-6" cx="113.73" cy="427.7" r="5"/><circle class="cls-6" cx="95.94" cy="446.56" r="5"/><circle class="cls-6" cx="115.8" cy="432.28" r="5"/><circle class="cls-6" cx="112.34" cy="395.92" r="5"/><circle class="cls-6" cx="153.21" cy="409.55" r="5"/><circle class="cls-6" cx="113.02" cy="428.08" r="5"/><circle class="cls-6" cx="157.68" cy="437.33" r="5"/><circle class="cls-6" cx="80.45" cy="467.34" r="5"/><circle class="cls-6" cx="120.74" cy="426.32" r="5"/><circle class="cls-6" cx="141.89" cy="405.19" r="5"/><circle class="cls-6" cx="102.06" cy="436.37" r="5"/><circle class="cls-6" cx="157.11" cy="432.86" r="5"/><circle class="cls-6" cx="105.16" cy="437.03" r="5"/><circle class="cls-6" cx="108.32" cy="438.74" r="5"/><circle class="cls-6" cx="123.6" cy="403.37" r="5"/><circle class="cls-6" cx="98.59" cy="440.86" r="5"/><circle class="cls-6" cx="92.57" cy="454.71" r="5"/><circle class="cls-6" cx="118.35" cy="407.54" r="5"/><circle class="cls-6" cx="119.94" cy="421.53" r="5"/><circle class="cls-6" cx="108.41" cy="432.16" r="5"/><circle class="cls-6" cx="132.03" cy="451.28" r="5"/><circle class="cls-6" cx="93.4" cy="445.36" r="5"/><circle class="cls-6" cx="122.47" cy="411.33" r="5"/><circle class="cls-6" cx="117.46" cy="415.99" r="5"/><circle class="cls-6" cx="106.57" cy="447.13" r="5"/><circle class="cls-6" cx="110.35" cy="452.83" r="5"/><circle class="cls-6" cx="95.19" cy="443.86" r="5"/><circle class="cls-6" cx="111.63" cy="424.52" r="5"/><circle class="cls-6" cx="126.49" cy="400.78" r="5"/><circle class="cls-6" cx="104.36" cy="429.37" r="5"/><circle class="cls-6" cx="109.57" cy="432.59" r="5"/><circle class="cls-6" cx="109.77" cy="433.52" r="5"/><circle class="cls-6" cx="106.97" cy="438.81" r="5"/><circle class="cls-6" cx="125.03" cy="402.17" r="5"/><circle class="cls-6" cx="146.05" cy="383.6" r="5"/><circle class="cls-6" cx="145.51" cy="370.93" r="5"/><circle class="cls-6" cx="133.64" cy="413.37" r="5"/><circle class="cls-6" cx="105.89" cy="435.51" r="5"/><circle class="cls-6" cx="105.19" cy="441.81" r="5"/><circle class="cls-6" cx="105.13" cy="444.43" r="5"/><circle class="cls-6" cx="114.68" cy="421.49" r="5"/><circle class="cls-6" cx="100.11" cy="462.62" r="5"/><circle class="cls-6" cx="97.45" cy="450.27" r="5"/><circle class="cls-6" cx="109.9" cy="451.29" r="5"/><circle class="cls-6" cx="77.9" cy="450.54" r="5"/><circle class="cls-6" cx="98.89" cy="453.12" r="5"/><circle class="cls-6" cx="78.35" cy="457.88" r="5"/><circle class="cls-6" cx="124.44" cy="419.68" r="5"/><circle class="cls-6" cx="115.51" cy="425.67" r="5"/><circle class="cls-6" cx="94.91" cy="457.88" r="5"/><circle class="cls-6" cx="111.08" cy="442.51" r="5"/><circle class="cls-6" cx="118.32" cy="421.59" r="5"/><circle class="cls-6" cx="109.61" cy="438.78" r="5"/><circle class="cls-6" cx="97.98" cy="448.82" r="5"/><circle class="cls-6" cx="105.47" cy="449.8" r="5"/><circle class="cls-6" cx="112.71" cy="427.49" r="5"/><circle class="cls-6" cx="100.76" cy="446.4" r="5"/><circle class="cls-6" cx="105.43" cy="439.13" r="5"/><circle class="cls-6" cx="108.3" cy="430.04" r="5"/><circle class="cls-6" cx="113.88" cy="423.07" r="5"/><circle class="cls-6" cx="111.9" cy="415.8" r="5"/><circle class="cls-6" cx="109.3" cy="415.03" r="5"/><circle class="cls-6" cx="112.21" cy="427.16" r="5"/><circle class="cls-6" cx="111.01" cy="423.42" r="5"/><circle class="cls-6" cx="99.46" cy="450.15" r="5"/><circle class="cls-6" cx="102.71" cy="432.76" r="5"/><circle class="cls-6" cx="108.22" cy="435.21" r="5"/><circle class="cls-6" cx="102.36" cy="449.33" r="5"/><circle class="cls-6" cx="111.65" cy="428.02" r="5"/><circle class="cls-6" cx="102.08" cy="443.07" r="5"/><circle class="cls-6" cx="111.12" cy="420.1" r="5"/><circle class="cls-6" cx="112.72" cy="417.23" r="5"/><circle class="cls-6" cx="95.27" cy="453.26" r="5"/><circle class="cls-6" cx="107.07" cy="429.73" r="5"/><circle class="cls-6" cx="124.18" cy="418.71" r="5"/><circle class="cls-6" cx="117.64" cy="425.94" r="5"/><circle class="cls-6" cx="107.9" cy="435.43" r="5"/><circle class="cls-6" cx="72.91" cy="469.93" r="5"/><circle class="cls-6" cx="122.89" cy="427.95" r="5"/><circle class="cls-6" cx="112.53" cy="450.96" r="5"/><circle class="cls-6" cx="116.75" cy="439.84" r="5"/><circle class="cls-6" cx="107.71" cy="462.11" r="5"/><circle class="cls-6" cx="127.93" cy="435.07" r="5"/><circle class="cls-6" cx="108.75" cy="432.63" r="5"/><circle class="cls-6" cx="80.72" cy="467.84" r="5"/><circle class="cls-6" cx="97.17" cy="439.03" r="5"/><circle class="cls-6" cx="129.33" cy="398.17" r="5"/><circle class="cls-6" cx="88.69" cy="446.04" r="5"/><circle class="cls-6" cx="105.3" cy="413.82" r="5"/><circle class="cls-6" cx="120.28" cy="423.95" r="5"/><circle class="cls-6" cx="106.61" cy="431.33" r="5"/><circle class="cls-6" cx="97.6" cy="438.53" r="5"/><circle class="cls-6" cx="119.24" cy="413.15" r="5"/><circle class="cls-6" cx="120.98" cy="393.89" r="5"/><circle class="cls-6" cx="93.28" cy="449.34" r="5"/><circle class="cls-6" cx="90.71" cy="440.34" r="5"/><circle class="cls-6" cx="102.51" cy="444.54" r="5"/><circle class="cls-6" cx="101.28" cy="410.76" r="5"/><circle class="cls-6" cx="78.63" cy="455.86" r="5"/><circle class="cls-6" cx="97.63" cy="433.2" r="5"/><circle class="cls-6" cx="109.59" cy="395.99" r="5"/><circle class="cls-6" cx="90.6" cy="453.48" r="5"/><circle class="cls-6" cx="114.83" cy="413.97" r="5"/><circle class="cls-6" cx="115.38" cy="406.36" r="5"/><circle class="cls-6" cx="77.73" cy="454.81" r="5"/><circle class="cls-6" cx="109.44" cy="401.9" r="5"/><circle class="cls-6" cx="129.2" cy="365.2" r="5"/><circle class="cls-6" cx="108.11" cy="406.91" r="5"/><circle class="cls-6" cx="107.03" cy="419.32" r="5"/><circle class="cls-6" cx="82.65" cy="447.05" r="5"/><circle class="cls-6" cx="117.97" cy="410.95" r="5"/><circle class="cls-6" cx="115.6" cy="420.98" r="5"/><circle class="cls-6" cx="122.82" cy="452.65" r="5"/><circle class="cls-6" cx="104.9" cy="423.61" r="5"/><circle class="cls-6" cx="88.02" cy="441.99" r="5"/><circle class="cls-6" cx="76.96" cy="463.12" r="5"/><circle class="cls-6" cx="103.41" cy="416.98" r="5"/><circle class="cls-6" cx="108.12" cy="436.46" r="5"/><circle class="cls-6" cx="93.99" cy="432.55" r="5"/><circle class="cls-6" cx="99.89" cy="435.84" r="5"/><circle class="cls-6" cx="104.9" cy="429.42" r="5"/><circle class="cls-6" cx="99.87" cy="453.13" r="5"/><circle class="cls-6" cx="132.02" cy="389.83" r="5"/><circle class="cls-6" cx="119.9" cy="409.7" r="5"/><circle class="cls-6" cx="93.93" cy="435.37" r="5"/><circle class="cls-6" cx="125.22" cy="435.67" r="5"/><circle class="cls-6" cx="111.12" cy="402.07" r="5"/><circle class="cls-6" cx="110.81" cy="405.99" r="5"/><circle class="cls-6" cx="102.8" cy="426.32" r="5"/><circle class="cls-6" cx="103.9" cy="423.98" r="5"/><circle class="cls-6" cx="115.72" cy="404.61" r="5"/><circle class="cls-6" cx="110.25" cy="415.31" r="5"/><circle class="cls-6" cx="105.19" cy="443.06" r="5"/><circle class="cls-6" cx="100.53" cy="416.02" r="5"/><circle class="cls-6" cx="145.32" cy="373.44" r="5"/><circle class="cls-6" cx="158.42" cy="308.65" r="5"/><circle class="cls-6" cx="122" cy="373.1" r="5"/><circle class="cls-6" cx="79" cy="458.65" r="5"/><circle class="cls-6" cx="90.15" cy="457.83" r="5"/><circle class="cls-6" cx="134.85" cy="389.38" r="5"/><circle class="cls-6" cx="112.93" cy="424.82" r="5"/><circle class="cls-6" cx="107.59" cy="420.83" r="5"/><circle class="cls-6" cx="94.53" cy="434.99" r="5"/><circle class="cls-6" cx="85.72" cy="451.51" r="5"/><circle class="cls-6" cx="94.44" cy="440.69" r="5"/><circle class="cls-6" cx="99.89" cy="463.07" r="5"/><circle class="cls-6" cx="81.69" cy="458.56" r="5"/><circle class="cls-6" cx="101.02" cy="450.43" r="5"/><circle class="cls-6" cx="106.04" cy="459.14" r="5"/><circle class="cls-6" cx="78.48" cy="464.43" r="5"/><circle class="cls-6" cx="98.12" cy="454.75" r="5"/><circle class="cls-6" cx="76.83" cy="475.58" r="5"/><circle class="cls-6" cx="78.27" cy="471.06" r="5"/><circle class="cls-6" cx="80.57" cy="458.23" r="5"/><circle class="cls-6" cx="74.59" cy="466.54" r="5"/><circle class="cls-6" cx="80.03" cy="444.49" r="5"/><circle class="cls-6" cx="82.83" cy="456.04" r="5"/><circle class="cls-6" cx="93.02" cy="459.94" r="5"/><circle class="cls-6" cx="86.35" cy="450.97" r="5"/><circle class="cls-6" cx="98.37" cy="440.81" r="5"/><circle class="cls-6" cx="72.95" cy="457.77" r="5"/><circle class="cls-6" cx="97.63" cy="439.69" r="5"/><circle class="cls-6" cx="120.04" cy="401.74" r="5"/><circle class="cls-6" cx="76.18" cy="474.18" r="5"/><circle class="cls-6" cx="164.67" cy="306.31" r="5"/><circle class="cls-6" cx="86.9" cy="452.14" r="5"/><circle class="cls-6" cx="94.61" cy="429.19" r="5"/><circle class="cls-6" cx="87.18" cy="453.02" r="5"/><circle class="cls-6" cx="94.39" cy="438.15" r="5"/><circle class="cls-6" cx="92.69" cy="451.48" r="5"/><circle class="cls-6" cx="89.65" cy="450.54" r="5"/><circle class="cls-6" cx="80.9" cy="460.4" r="5"/><circle class="cls-6" cx="85.99" cy="458.72" r="5"/><circle class="cls-6" cx="97.97" cy="469.1" r="5"/><circle class="cls-6" cx="85.11" cy="454.36" r="5"/><circle class="cls-6" cx="115.8" cy="439.67" r="5"/><circle class="cls-6" cx="80.56" cy="449" r="5"/><circle class="cls-6" cx="91.01" cy="436.66" r="5"/><circle class="cls-6" cx="100.51" cy="433.48" r="5"/><circle class="cls-6" cx="116.89" cy="449.62" r="5"/><circle class="cls-6" cx="122.75" cy="473.88" r="5"/><circle class="cls-6" cx="104.6" cy="415.54" r="5"/><circle class="cls-6" cx="98.98" cy="421.95" r="5"/><circle class="cls-6" cx="135.99" cy="375.38" r="5"/><circle class="cls-6" cx="108.52" cy="420.4" r="5"/><circle class="cls-6" cx="85.3" cy="446.66" r="5"/><circle class="cls-6" cx="108.6" cy="468.21" r="5"/><circle class="cls-6" cx="79.88" cy="464.63" r="5"/><circle class="cls-6" cx="99.55" cy="438.05" r="5"/><circle class="cls-6" cx="82.1" cy="443.84" r="5"/><circle class="cls-6" cx="106.87" cy="421.17" r="5"/><circle class="cls-6" cx="79.79" cy="450.59" r="5"/><circle class="cls-6" cx="80.04" cy="466.62" r="5"/><circle class="cls-6" cx="112.24" cy="415.18" r="5"/><circle class="cls-6" cx="67.8" cy="467.55" r="5"/><circle class="cls-6" cx="77.89" cy="461.46" r="5"/><circle class="cls-6" cx="103.06" cy="428.33" r="5"/><circle class="cls-6" cx="55.73" cy="468.07" r="5"/><circle class="cls-6" cx="56.27" cy="469.94" r="5"/><circle class="cls-6" cx="113.93" cy="413.35" r="5"/><circle class="cls-6" cx="60.9" cy="467.72" r="5"/><circle class="cls-6" cx="97.7" cy="440.69" r="5"/><circle class="cls-6" cx="97.66" cy="445.59" r="5"/><circle class="cls-6" cx="88.66" cy="439.88" r="5"/><circle class="cls-6" cx="91.17" cy="444.69" r="5"/><circle class="cls-6" cx="71.44" cy="469.39" r="5"/><circle class="cls-6" cx="147.04" cy="321.89" r="5"/><circle class="cls-6" cx="80.51" cy="433.71" r="5"/><circle class="cls-6" cx="98.36" cy="445.48" r="5"/><circle class="cls-6" cx="66.41" cy="475.91" r="5"/><circle class="cls-6" cx="72.98" cy="464.54" r="5"/><circle class="cls-6" cx="85.67" cy="469.82" r="5"/><circle class="cls-6" cx="76.48" cy="468.42" r="5"/><circle class="cls-6" cx="86.57" cy="456.38" r="5"/><circle class="cls-6" cx="102.26" cy="460.51" r="5"/><circle class="cls-6" cx="84.14" cy="462.5" r="5"/><circle class="cls-6" cx="85.53" cy="472.46" r="5"/><circle class="cls-6" cx="76.62" cy="453.77" r="5"/><circle class="cls-6" cx="84.99" cy="445.36" r="5"/><circle class="cls-6" cx="82.73" cy="447.03" r="5"/><circle class="cls-6" cx="58.12" cy="473.31" r="5"/><circle class="cls-6" cx="53.62" cy="478.95" r="5"/><circle class="cls-6" cx="82.27" cy="470.24" r="5"/><circle class="cls-6" cx="79.09" cy="476.44" r="5"/><circle class="cls-6" cx="63.52" cy="478.91" r="5"/><circle class="cls-6" cx="71.84" cy="463.06" r="5"/><circle class="cls-6" cx="84.2" cy="465.88" r="5"/><circle class="cls-6" cx="59.7" cy="477.09" r="5"/><circle class="cls-6" cx="70.56" cy="463.13" r="5"/><circle class="cls-6" cx="67.04" cy="465.63" r="5"/><circle class="cls-6" cx="83.85" cy="463.73" r="5"/><circle class="cls-6" cx="75.98" cy="473.49" r="5"/><circle class="cls-6" cx="76.1" cy="468.84" r="5"/><circle class="cls-6" cx="94.83" cy="438.65" r="5"/><circle class="cls-6" cx="91.75" cy="459.16" r="5"/><circle class="cls-6" cx="75.53" cy="467.97" r="5"/><circle class="cls-6" cx="83.83" cy="455.5" r="5"/><circle class="cls-6" cx="94.43" cy="445.86" r="5"/><circle class="cls-6" cx="110.96" cy="430.53" r="5"/><circle class="cls-6" cx="82.17" cy="464.63" r="5"/><circle class="cls-6" cx="85.54" cy="461.2" r="5"/><circle class="cls-6" cx="79.11" cy="460.52" r="5"/><circle class="cls-6" cx="74.97" cy="464.62" r="5"/><circle class="cls-6" cx="88.57" cy="463.77" r="5"/><circle class="cls-6" cx="73.64" cy="464.08" r="5"/><circle class="cls-6" cx="88.57" cy="452.42" r="5"/><circle class="cls-6" cx="82.81" cy="458.43" r="5"/><circle class="cls-6" cx="91.61" cy="458.49" r="5"/><circle class="cls-6" cx="90.39" cy="456.92" r="5"/><circle class="cls-6" cx="81.23" cy="459.14" r="5"/><circle class="cls-6" cx="68.26" cy="464.21" r="5"/><circle class="cls-6" cx="89.4" cy="444.56" r="5"/><circle class="cls-6" cx="69.23" cy="462.64" r="5"/><circle class="cls-6" cx="68.86" cy="465.2" r="5"/><circle class="cls-6" cx="68.95" cy="472.91" r="5"/><circle class="cls-6" cx="65.42" cy="467.33" r="5"/><circle class="cls-6" cx="59.18" cy="473.46" r="5"/><circle class="cls-6" cx="73.96" cy="459.53" r="5"/><circle class="cls-6" cx="83.08" cy="460.04" r="5"/><circle class="cls-6" cx="79.84" cy="467.77" r="5"/><circle class="cls-6" cx="76.97" cy="460.22" r="5"/><circle class="cls-6" cx="59.79" cy="468.36" r="5"/><circle class="cls-6" cx="84.32" cy="444.32" r="5"/><circle class="cls-6" cx="76.43" cy="462.14" r="5"/><circle class="cls-6" cx="70.95" cy="454.38" r="5"/><circle class="cls-6" cx="91.25" cy="428.66" r="5"/><circle class="cls-6" cx="75.93" cy="457.13" r="5"/><circle class="cls-6" cx="58.8" cy="475.8" r="5"/><circle class="cls-6" cx="87.18" cy="443.88" r="5"/><circle class="cls-6" cx="64.51" cy="463.67" r="5"/><circle class="cls-6" cx="67.22" cy="460.78" r="5"/><circle class="cls-6" cx="98.63" cy="442.34" r="5"/><circle class="cls-6" cx="81.82" cy="453.72" r="5"/><circle class="cls-6" cx="105.31" cy="465.36" r="5"/><circle class="cls-6" cx="50.75" cy="479.12" r="5"/><circle class="cls-6" cx="85.9" cy="473.62" r="5"/><circle class="cls-6" cx="81.4" cy="463.16" r="5"/><circle class="cls-6" cx="76.52" cy="467.81" r="5"/><circle class="cls-6" cx="74.31" cy="474.62" r="5"/><circle class="cls-6" cx="80.57" cy="466.84" r="5"/><circle class="cls-6" cx="65.11" cy="469.78" r="5"/><circle class="cls-6" cx="67.76" cy="467.36" r="5"/><circle class="cls-6" cx="69.86" cy="476.49" r="5"/><circle class="cls-6" cx="82.33" cy="471.81" r="5"/><circle class="cls-6" cx="56.1" cy="478.08" r="5"/><circle class="cls-6" cx="54.88" cy="480.12" r="5"/><circle class="cls-6" cx="81.42" cy="477.43" r="5"/><circle class="cls-6" cx="87.57" cy="468.97" r="5"/><circle class="cls-6" cx="85.25" cy="479.41" r="5"/><circle class="cls-6" cx="93.12" cy="470.66" r="5"/><circle class="cls-6" cx="73.46" cy="477.76" r="5"/><circle class="cls-6" cx="97.23" cy="457.03" r="5"/><circle class="cls-6" cx="84.07" cy="458.94" r="5"/><circle class="cls-6" cx="99.96" cy="458.92" r="5"/><circle class="cls-6" cx="97.7" cy="461.37" r="5"/><circle class="cls-6" cx="61.05" cy="476.82" r="5"/><circle class="cls-6" cx="94.02" cy="473.54" r="5"/><circle class="cls-6" cx="59.76" cy="470.89" r="5"/><circle class="cls-6" cx="87.21" cy="462.77" r="5"/><circle class="cls-6" cx="67.89" cy="454.47" r="5"/><circle class="cls-6" cx="60.45" cy="472.48" r="5"/><circle class="cls-6" cx="67.3" cy="466.99" r="5"/><circle class="cls-6" cx="105.2" cy="456.32" r="5"/><circle class="cls-6" cx="86.23" cy="444.08" r="5"/><circle class="cls-6" cx="51.06" cy="475.42" r="5"/><circle class="cls-6" cx="88.27" cy="458.74" r="5"/></g></g></svg>